<svg xmlns="http://www.w3.org/2000/svg" width="60.5" height="60.5" viewBox="0 0 60.5 60.5">
  <g id="Icon-support" transform="translate(0.25 0.25)">
    <circle id="bg2" cx="30" cy="30" r="30" fill="#fff" stroke="#83aaba" stroke-width="0.5"/>
    <g id="Icon-support-2" data-name="Icon-support" transform="translate(15 13)">
      <path id="Shape" d="M16.057,32.447h0A4.049,4.049,0,0,1,13.2,31.285a3.913,3.913,0,0,1,2.01-6.675,4.017,4.017,0,0,1,4.734,3.1h.035A6.463,6.463,0,0,0,25.1,25.179l.08-.118h-.936l-.023,0H24.2a.757.757,0,0,1-.514-.278.749.749,0,0,1-.17-.561V14.375c0-.463.279-.962.73-.962h.893V11.445a9.726,9.726,0,0,0-2.908-6.957A9.952,9.952,0,0,0,5.273,11.445v1.967H6.16c.457,0,.73.489.73.962v9.842a.126.126,0,0,1,.006.043.739.739,0,0,1-.2.551.773.773,0,0,1-.537.25H3.123A3.2,3.2,0,0,1,0,21.809V16.788a3.28,3.28,0,0,1,3.166-3.376H3.65V11.445A11.317,11.317,0,0,1,7.033,3.353a11.63,11.63,0,0,1,16.338,0,11.308,11.308,0,0,1,3.387,8.092v1.967h.082a2.882,2.882,0,0,1,2.279,1.24A4.325,4.325,0,0,1,30,17.186v5.021a2.627,2.627,0,0,1-.766,1.929,3.215,3.215,0,0,1-2.072.845l-.77,1.124a8.1,8.1,0,0,1-6.41,3.171h-.035a3.588,3.588,0,0,1-.973,1.93A4.179,4.179,0,0,1,16.057,32.447ZM16.014,26.1a2.384,2.384,0,0,0-2.393,2.371,2.464,2.464,0,0,0,2.436,2.37,2.41,2.41,0,0,0,1.74-.763,2.094,2.094,0,0,0,.607-1.607v-.005A2.381,2.381,0,0,0,16.014,26.1Zm9.121-11.085h0v8.434H26.84c.361,0,1.537-.09,1.537-1.247V17.186c0-.862-.613-2.167-1.537-2.167H25.135Zm-21.969,0a1.669,1.669,0,0,0-1.543,1.769v5.063a1.552,1.552,0,0,0,.434,1.116,1.581,1.581,0,0,0,1.109.486H5.273V15.02Z" fill="#258f67"/>
    </g>
  </g>
</svg>
