<svg xmlns="http://www.w3.org/2000/svg" width="493.779" height="353.054" viewBox="0 0 493.779 353.054">
  <g id="Nature" transform="translate(-5 -157.477)">
    <path id="Path_83831" data-name="Path 83831" d="M491.434,371.755a172.957,172.957,0,0,1-7.877,21.036q-.273.607-.554,1.213l-.161.348q-1.834,3.969-3.905,7.9a173.091,173.091,0,0,1-24.747,35.427l-.191.211q-2.218,2.449-4.562,4.852-4.182,4.286-8.773,8.405-3.435,3.075-7.107,6.048h0c-27.884,22.562-66.067,40.287-117.058,48.436q-11.264,1.8-23.368,2.965-2.158.206-4.344.391a478.723,478.723,0,0,1-64.868.823q-1.226-.063-2.457-.132h0q-1.645-.09-3.3-.193c-28.846-1.775-58.912-11.271-87.059-26.321q-7.337-3.923-14.487-8.34-5.827-3.6-11.5-7.5A275.393,275.393,0,0,1,67.4,436.063q-1.526-1.512-3.024-3.049h0q-.826-.845-1.642-1.7-.508-.53-1.015-1.065-5.777-6.1-11.1-12.516l-.33-.4q-1.415-1.712-2.794-3.446-2.056-2.584-4.033-5.21l-.335-.445q-.485-.649-.966-1.3-1.709-2.323-3.356-4.677-.624-.89-1.238-1.785-2.081-3.035-4.051-6.118-1.855-2.9-3.605-5.846-3-5.043-5.679-10.2a181.865,181.865,0,0,1-11.856-28.2q-.144-.435-.277-.869-.813-2.572-1.535-5.159a141.028,141.028,0,0,1-4.826-53.142q.1-.98.22-1.955c3.419-29.024,13.733-53.5,28.894-73.165,46.417-60.214,138.258-75.388,216.72-38.169h0a216.789,216.789,0,0,1,55.285,37.73q2.659,2.492,5.261,5.092l1.252-.185q9.019-1.319,17.78-2.335,8.332-.959,16.4-1.615c10.894-.874,21.413-1.3,31.475-1.181,52.488.6,92.76,15.867,110.791,58.418a97.075,97.075,0,0,1,3.422,9.46C500.516,306.806,501.322,339.037,491.434,371.755Z" transform="translate(0)" fill="#cfe5e2"/>
    <circle id="Ellipse_9417" data-name="Ellipse 9417" cx="49.532" cy="49.532" r="49.532" transform="translate(214.585 176.044)" fill="#f4cc69"/>
    <g id="Group_163335" data-name="Group 163335" transform="translate(5 215.434)">
      <path id="Path_83832" data-name="Path 83832" d="M226.911,372.471a48.348,48.348,0,0,0-18.964-14.919q-1.494-.637-2.994-1.148a48.786,48.786,0,0,0-19-2.348,64.378,64.378,0,0,0-10.851,1.672h0a79.465,79.465,0,0,0-14.133,4.887c-.453-12.183-7.647-22.984-18.383-27.575-12.587-5.382-27.873-1.3-36.766,10.212-.215-2.388-3.936-37.128-34.723-53.106a63.973,63.973,0,0,0-36.249-6.7C19.687,303.12,9.375,327.594,5.954,356.618q-.114.973-.22,1.955a141.052,141.052,0,0,0,4.824,53.14q.721,2.584,1.535,5.159l.277.869a181.869,181.869,0,0,0,11.856,28.2q2.676,5.152,5.679,10.2,1.751,2.944,3.605,5.846,1.968,3.084,4.051,6.118.614.9,1.238,1.785,1.646,2.354,3.359,4.674l.917.461q1.253.626,2.487,1.21,1.931.919,3.806,1.745,2.354,1.04,4.591,1.944c5.049,2.047,9.619,3.608,13.412,4.825q.852.273,1.649.524,1.2.377,2.278.707h0l.816.251q1.957.6,3.947,1.157c4.1,1.144,8.29,2.142,12.557,2.993q2.974.593,5.99,1.092h0c4.335.716,8.73,1.287,13.159,1.711q2.769.264,5.552.454c5.418.369,10.87.521,16.309.461.138,0,.273,0,.41-.006q3.391-.043,6.773-.2a194.674,194.674,0,0,0,27.43-3.195q4.253-.808,8.392-1.812,3.27-.792,6.455-1.707a143.173,143.173,0,0,0,13.83-4.715h0q1.311-.525,2.6-1.077,1.8-.762,3.543-1.575,1.469-.684,2.9-1.4h0q2.847-1.422,5.54-2.97h0a92.349,92.349,0,0,0,8.578-5.559q2.21-1.617,4.261-3.344,2.607-2.192,4.938-4.557h0c.205-.208.41-.415.611-.628h0A56.434,56.434,0,0,0,238.58,441.3C245.939,420.765,241.751,391.353,226.911,372.471Z" transform="translate(-5 -283.068)" fill="#faf6ee"/>
      <path id="Path_83833" data-name="Path 83833" d="M131.708,513.592c-3.791-9.1-10.017-17.94-17.321-25.973a158.44,158.44,0,0,0-36.142-29.2q-2.336-1.352-4.683-2.571-4.677-2.434-9.373-4.372a128.073,128.073,0,0,0-45.018-9.468c-4.55-.15-8.969-.078-13.217.159q-.114.973-.22,1.955a141.052,141.052,0,0,0,4.824,53.14q.721,2.584,1.535,5.159l.277.869a181.871,181.871,0,0,0,11.856,28.2q2.677,5.152,5.679,10.2,1.751,2.944,3.605,5.846,1.968,3.084,4.051,6.118.614.9,1.238,1.785,1.646,2.354,3.359,4.674.481.652.966,1.3l.335.445q1.976,2.628,4.033,5.21,1.379,1.734,2.794,3.446l.33.4q5.316,6.41,11.1,12.516,1.918-.089,3.83-.241c3.629-.29,7.229-.747,10.769-1.363h.012q3.915-.682,7.721-1.622h0q2.163-.532,4.281-1.149,3.2-.925,6.276-2.031h0q3.1-1.115,6.049-2.4h0q1.445-.63,2.851-1.3,1.889-.9,3.7-1.881a65.268,65.268,0,0,0,18.321-14.171q.785-.9,1.514-1.821a42.885,42.885,0,0,0,4.586-7.107q.2-.4.395-.8a36.664,36.664,0,0,0,2.386-6.395C136.857,532.062,135.5,522.7,131.708,513.592Z" transform="translate(-5 -368.619)" fill="#eed9c0"/>
    </g>
    <g id="Group_163339" data-name="Group 163339" transform="translate(29.907 179.111)">
      <g id="Group_163338" data-name="Group 163338" transform="translate(0 0)">
        <path id="Path_83834" data-name="Path 83834" d="M522.307,308.282a24.2,24.2,0,0,0-12.85-6.322c-7.313-.962-13.823,2.329-18.1,5.169-27.754-12.907-40.278-28.123-46.538-40.075-4.235-8.086-9.443-22.008-19.391-23.269-4.649-.59-8.823,1.776-11.636,3.876q-2.951-3.838-5.7-7.259c-4.693-5.846-8.953-10.815-12.819-15.019q-.474-.515-.941-1.015-1.635-1.754-3.176-3.323-.439-.446-.871-.88l-.431-.431q-.75-.749-1.479-1.452t-1.434-1.366h0q-.4-.377-.8-.741l-.4-.364q-1.375-1.253-2.663-2.346h0c-.221-.185-.439-.369-.655-.549l-.212-.176c-1.556-1.286-3.018-2.4-4.392-3.353l-.3-.2-.318-.217-.308-.206-.323-.21c-.208-.138-.413-.267-.616-.395l-.3-.189q-.657-.4-1.285-.758l-.113-.064L374,207l-.123-.067c-.092-.05-.185-.1-.277-.148-.319-.169-.635-.33-.942-.48l-.173-.083q-.178-.086-.355-.166l-.173-.079-.172-.076-.171-.075-.337-.143q-.121-.051-.242-.1c-.079-.032-.159-.064-.239-.092-.267-.1-.53-.2-.788-.289-.185-.064-.364-.123-.541-.177h0c-.118-.037-.235-.073-.352-.106a.1.1,0,0,1-.03-.008l-.219-.06-.217-.057c-.1-.027-.207-.054-.309-.077-.072-.016-.143-.033-.214-.046-.117-.026-.233-.05-.347-.072l-.246-.046q-.3-.053-.592-.092c-.19-.024-.378-.046-.56-.059h-.008a9.1,9.1,0,0,0-4.292.6,8.166,8.166,0,0,0-2.248,1.4l-.107.092-.138.127c-.036.032-.07.065-.1.1a.1.1,0,0,0-.024.022.618.618,0,0,0-.046.046l-.014.014c-.028.028-.057.055-.084.084a.045.045,0,0,0-.012.012c-.043.042-.085.084-.126.127-.192.2-.377.4-.558.623-.036.042-.072.085-.107.129-.19.231-.375.475-.558.728q-.2.271-.389.559c-.127.192-.256.39-.383.593s-.255.411-.379.625-.255.432-.381.657c-.064.113-.127.226-.191.341-.12.213-.238.431-.357.653-.494.918-1,1.913-1.552,2.98l-.5.969c-.014.027-.028.056-.042.083s-.04.077-.06.116a.525.525,0,0,1-.026.05l-.185.357q-.264.513-.545,1.045l-.214.4q-.077.148-.157.3-.208.388-.424.788l-.3.554c-.127.231-.258.469-.392.707l-.2.359c-.068.12-.135.241-.206.363-.056.1-.111.194-.167.292s-.126.223-.193.335-.131.224-.2.336q-.332.568-.686,1.154l-.174.284q-.092.156-.191.311c-.064.1-.128.208-.193.312l-.2.315c-.083.131-.166.264-.25.4q-.247.385-.5.779l-.016.024-.266.406c-.07.108-.143.217-.217.326l-.221.329c-.02.032-.042.062-.064.092-.057.085-.116.172-.175.258q-.218.323-.446.646l-.185.265q-.2.281-.4.566t-.433.6l-.41.562c-.054.072-.108.146-.164.22-.072.1-.148.2-.222.3s-.151.2-.227.3c-.151.2-.3.4-.461.607l-.223.289c-.083.108-.167.215-.252.323l-.257.326-.271.34c-.142.179-.285.358-.432.538-.069.086-.138.173-.212.26-.109.135-.22.269-.332.4s-.225.271-.339.407q-.34.407-.692.821-.491.575-.983,1.131l-.326.369c-.081.092-.161.18-.242.27q-.426.474-.85.934-.277.3-.554.6-.319.339-.635.67-.476.5-.947.976l-.315.318-.312.314-.311.31q-.4.39-.788.77l-.26.251q-.439.423-.873.827l-.288.268q-.575.535-1.136,1.04l-.246.22-.408.364-.492.431q-.754.659-1.477,1.263c-.077.064-.154.128-.231.191q-.585.489-1.146.941c-.082.066-.162.132-.243.2s-.16.129-.24.193l-.474.376-.307.24-.3.234c-.1.078-.2.154-.3.231q-1.133.871-2.123,1.59l-.259-.221c-2.911-2.45-7.434-5.377-12.668-4.951-6.66.542-10.81,6.214-15.513,11.635A146.634,146.634,0,0,1,270.3,279.986c-.623-.155-1.283-.309-1.977-.456q-.348-.073-.7-.145-.716-.143-1.477-.273-.378-.065-.768-.126l-.391-.06q-.4-.058-.8-.113c-.134-.018-.27-.035-.406-.052-.247-.032-.5-.06-.748-.089l-.34-.036-.43-.043-.433-.039-.439-.036-.442-.032q-.932-.064-1.9-.092h-.023c-.208,0-.415-.011-.628-.014-.125,0-.25,0-.375,0q-.513,0-1.033,0c-.22,0-.439.008-.66.013-.092,0-.189.006-.283.009l-.2.007-.4.017q-.4.02-.8.046l-.169.012-.17.012-.342.026-.343.029-.345.032-.347.035c-.231.024-.461.05-.7.078q-.138.015-.277.034l-.277.036q-.277.036-.554.077c-.125.018-.251.036-.376.057-.092.015-.189.03-.283.046l-.224.036-.4.069c-.135.023-.268.049-.4.074s-.27.051-.406.078c-.09.017-.18.036-.27.054-.182.036-.365.075-.547.115-.135.03-.273.06-.409.092-.1.022-.191.046-.287.067q-.2.046-.4.1c-.2.046-.4.1-.6.151-.129.034-.26.068-.389.1l-.392.108c-.131.036-.249.07-.371.107l-.252.075c-.169.051-.339.1-.508.156q-.277.085-.554.177l-.294.1q-.277.092-.554.191l-.238.084c-.235.083-.468.169-.7.257l-.156.059q-.145.054-.29.113c-.1.037-.192.075-.287.114q-.287.114-.569.231c-.142.058-.282.118-.422.179-.07.03-.141.06-.21.092s-.138.059-.208.092q-.138.06-.277.123c-.092.042-.185.082-.274.124l-.542.252-.268.129-.4.2c-.133.066-.264.131-.394.2l-.39.2c-.13.067-.258.135-.385.2-.17.09-.34.181-.508.274l-.251.138-.258.144-.481.277q-.52.3-1.022.612l-.421.263c-.114.072-.226.143-.338.216l-.015.009-.187.121q-.639.415-1.249.84c-.076.054-.152.106-.227.159-.216.152-.43.3-.641.461-.087.063-.172.125-.257.189q-.554.409-1.085.823c-.292.228-.579.455-.857.683s-.554.454-.82.682c-.333.283-.658.566-.972.845-.064.056-.126.112-.187.168-.176.158-.35.315-.52.473-.085.077-.169.156-.252.234q-.327.3-.638.6c-.092.086-.181.174-.27.26s-.193.187-.288.282q-.323.315-.624.624c-.067.069-.134.138-.2.2-1.489,1.523-2.635,2.847-3.45,3.775a164.478,164.478,0,0,1-17.013,16.536h0c-16.77,14.3-35.82,26.223-52.8,40.329-1.208,1-2.668,2.144-4.351,3.4q-1.641,1.229-3.558,2.606h0c-1.934,1.39-4.061,2.886-6.357,4.466-4.492,3.1-9.614,6.522-15.136,10.14q-3.149,2.063-6.461,4.2c-3.387,2.194-6.882,4.434-10.436,6.695q-3.323,2.115-6.7,4.246h0c-9.667,6.1-19.552,12.226-28.767,17.859q-2.37,1.45-4.676,2.852-3.042,1.851-5.944,3.606c.215.362.433.723.65,1.084h0v0q.308.511.619,1.02l.2.323q.266.434.534.868c.123.2.247.4.369.6l.408.653q.4.643.813,1.284l.01.016h0q1.968,3.084,4.051,6.118.614.9,1.238,1.785,1.646,2.354,3.359,4.674.481.652.966,1.3l.335.445q1.754,2.334,3.576,4.632H501.651q3.419-5.474,6.348-11.053,2.073-3.933,3.905-7.9l.08-.174.08-.174q.28-.606.554-1.213.352-.781.692-1.563l.053-.121q.332-.759.656-1.518h0a173.139,173.139,0,0,0,6.475-17.834C530.388,364.283,529.582,332.052,522.307,308.282Z" transform="translate(-58.973 -204.357)" fill="#90acbd"/>
        <path id="Path_83835" data-name="Path 83835" d="M851.372,397.006a172.948,172.948,0,0,1-7.877,21.036q-.273.607-.554,1.213l-.161.348H759.955c-.1-.351-.2-.7-.3-1.042-.036-.121-.072-.244-.108-.365-.057-.193-.115-.384-.173-.574l-.157-.508c-.036-.12-.073-.238-.112-.354s-.077-.243-.116-.364q-.112-.346-.225-.687c-.116-.347-.231-.689-.352-1.028-.037-.112-.077-.225-.118-.337q-.3-.84-.607-1.649c-.033-.087-.066-.175-.1-.261-.067-.174-.135-.348-.2-.52l-.138-.35q-.36-.9-.736-1.76-.123-.283-.246-.56c-.041-.092-.083-.185-.125-.277-.068-.154-.138-.307-.21-.458-.1-.218-.2-.433-.3-.646l-.1-.2c-.054-.112-.107-.223-.162-.333q-.358-.738-.726-1.446c-.063-.123-.128-.244-.192-.366q-.115-.218-.231-.433c-.142-.264-.285-.522-.428-.779q-.094-.167-.185-.331-.1-.182-.207-.361c-.179-.307-.357-.611-.537-.908-.046-.074-.089-.149-.134-.223s-.092-.149-.136-.221-.088-.138-.131-.211q-.277-.443-.554-.872c-.046-.069-.089-.138-.134-.206-.143-.219-.287-.435-.432-.646l-.12-.177c-.008-.014-.017-.026-.026-.04q-.066-.1-.138-.2a.065.065,0,0,0-.01-.015q-.086-.126-.174-.25-.52-.747-1.048-1.446l-.2-.258q-.334-.439-.672-.861c-.073-.092-.145-.185-.219-.274-.092-.117-.189-.231-.284-.347q-.218-.268-.44-.526c-.064-.075-.127-.15-.192-.225s-.149-.175-.224-.26q-.277-.32-.556-.628c-.138-.155-.277-.306-.415-.455s-.277-.3-.415-.444q-.242-.258-.486-.5c-.081-.084-.163-.166-.244-.248-.11-.111-.221-.222-.332-.332-.092-.092-.185-.181-.277-.27q-.3-.295-.6-.577-.15-.142-.3-.28c-.1-.092-.2-.185-.3-.274l-.3-.268c-.1-.089-.2-.173-.292-.258l-.264-.231q-.738-.638-1.458-1.2c-.046-.037-.095-.075-.141-.111-.118-.092-.235-.185-.352-.272l-.3-.231-.049-.036c-.092-.069-.185-.138-.277-.206q-.626-.461-1.246-.874c-.046-.03-.092-.061-.136-.092l-.332-.218c-.084-.055-.168-.109-.253-.163s-.169-.108-.254-.16-.168-.106-.252-.157l-.254-.155c-.113-.068-.225-.135-.337-.2l-.309-.18c-.122-.071-.243-.138-.366-.208l-.253-.138c-.207-.115-.415-.228-.622-.337l-.311-.163c-.1-.054-.208-.108-.312-.16-.126-.065-.253-.13-.382-.192l-.282-.138q-.328-.161-.658-.316-.3-.144-.61-.283c-.234-.107-.469-.211-.707-.316l-.357-.156c-.2-.088-.4-.173-.6-.259-.161-.068-.323-.138-.486-.2l-.447-.185-.793-.325-.6-.242-.71-.284-.359-.143-.4-.158-.7-.28-.376-.15-.554-.221-.076-.03-.692-.277c-.231-.092-.466-.185-.7-.284q-.887-.359-1.822-.749l-.387-.162q-.388-.162-.785-.334l-.643-.277q-.851-.369-1.747-.773l-.288-.131q-.4-.18-.8-.369c-.185-.085-.369-.17-.554-.258-.363-.168-.729-.343-1.1-.521l-.39-.189-.511-.249c-.1-.046-.2-.1-.294-.145q-.854-.421-1.748-.877l-.173-.089c-.122-.061-.243-.125-.365-.189l-.741-.386c-.249-.131-.5-.264-.754-.4q-.185-.1-.369-.2-.732-.392-1.489-.811c-.292-.16-.587-.323-.886-.493l-.449-.253-.455-.258-.766-.44c-.12-.07-.242-.138-.362-.21s-.245-.142-.366-.214l-.369-.216c-10.423-6.132-32.5-19.01-32.5-29.412,0-.072,0-.146,0-.219a.231.231,0,0,1,0-.03c0-.053,0-.1.006-.158s.006-.09.009-.135a.571.571,0,0,1,.006-.064h0a6.737,6.737,0,0,1,.161-1.006c1.384-5.807,9.661-5.768,20.687-12.146l.011-.006.261-.151q.208-.119.415-.244l.15-.09c.1-.061.2-.121.3-.185s.2-.123.3-.185l.4-.249c.052-.033.106-.066.158-.1l.153-.1c.1-.065.2-.131.308-.2.208-.134.415-.27.625-.41l.2-.134c.1-.069.208-.138.311-.21s.182-.124.274-.187c.107-.074.215-.148.323-.224s.216-.151.323-.231l.089-.064.165-.118c.024-.016.046-.033.071-.051l.327-.236c16.783-12.258,31.165-36.364,23.271-49.125-5.294-8.556-17.688-10.025-21.977-10.343a59.247,59.247,0,0,0,6.779-24.176,54.084,54.084,0,0,0-.315-9.435,55.229,55.229,0,0,0-11.814-27.738,10.4,10.4,0,0,1,1.882-.014h.008c.185.015.369.036.56.059s.391.056.592.092c.081.014.164.03.246.046.114.022.231.046.347.072.071.015.142.032.214.046.1.024.2.05.309.077l.217.057.219.06.03.008c.116.034.234.069.352.106h0c.179.056.358.115.541.177q.387.133.788.289l.239.092c.079.03.161.065.242.1l.337.143.171.075.172.076.173.079q.177.08.355.166l.173.083c.308.15.623.311.942.48.092.046.185.1.277.148l.123.067.263.145.114.064q.628.353,1.285.758l.3.189c.2.127.408.259.616.395l.323.21.308.206.318.217.3.2c1.374.956,2.836,2.067,4.392,3.353l.212.176c.216.179.434.363.655.549h0q1.289,1.094,2.663,2.346l.4.364q.4.365.8.741h0q.706.662,1.434,1.366t1.479,1.452l.432.431q.432.433.871.88,1.539,1.572,3.176,3.323.465.5.941,1.015c3.868,4.2,8.127,9.172,12.819,15.019q2.749,3.425,5.7,7.259c2.812-2.1,6.987-4.468,11.636-3.876,9.948,1.262,15.156,15.183,19.391,23.269,6.26,11.952,18.784,27.168,46.538,40.075,4.276-2.842,10.786-6.132,18.1-5.169a24.244,24.244,0,0,1,12.85,6.322C860.455,332.057,861.261,364.288,851.372,397.006Z" transform="translate(-389.846 -204.362)" fill="#799aaa"/>
        <g id="Group_163336" data-name="Group 163336" transform="translate(31.891 2.044)" opacity="0.55">
          <path id="Path_83836" data-name="Path 83836" d="M637.4,260.294c7.028,5.639,20.807-1.444,27.8-8.847,10.4-11,12.988-30.314,4-42.66-4.827,4.171-6.39,14.256-18.435,28.335a98.069,98.069,0,0,1-16.806,15.512c-.167-.143-.34-.288-.517-.434C633.85,255.2,634.925,258.309,637.4,260.294Z" transform="translate(-400.228 -208.787)" fill="#799aaa"/>
          <path id="Path_83837" data-name="Path 83837" d="M128.08,541.185H307.1c49.839-74.9,71.1-128.58,63.763-134.681q-6.708-5.575-45.246,27.148c-2.366-2.689-5.78-5.595-10.344-6.464C298.531,424,286.142,451.993,255.8,473.727a140.293,140.293,0,0,1-38.782,19.391,93.178,93.178,0,0,0-27.148,2.584C165.181,501.831,137.663,530.134,128.08,541.185Z" transform="translate(-128.08 -314.825)" fill="#799aaa"/>
          <path id="Path_83838" data-name="Path 83838" d="M423.41,366.346A47.9,47.9,0,0,0,402.3,379.377q-16.853,30.007-12.5,33.508,6.383,5.107,58.174-46.539A47.881,47.881,0,0,0,423.41,366.346Z" transform="translate(-268.541 -292.766)" fill="#799aaa"/>
        </g>
        <g id="Group_163337" data-name="Group 163337" transform="translate(283.531 46.735)">
          <path id="Path_83839" data-name="Path 83839" d="M707.171,434.8c1.6-3.784,38,15.189,47.832,5.171,6.4-6.526,2.723-26.564-32.319-80.151,7.895,12.759-6.488,36.867-23.27,49.125-12.039,8.794-21.837,8.943-24.982,13.565q-.534,1.453-1.035,2.958c-.889,10.5,21.854,23.766,32.48,30.016,20.293,11.938,27.245,10.262,37.49,19.391,6.346,5.655,13.656,15.234,17.582,32.4.173-.028.345-.049.518-.078-2.564-13.817-8.228-31.544-21.977-46.539C724.757,444.59,706.051,437.45,707.171,434.8Z" transform="translate(-673.373 -334.814)" fill="#678b99"/>
          <path id="Path_83840" data-name="Path 83840" d="M991.929,510.7a172.942,172.942,0,0,1-7.877,21.036q-.273.607-.554,1.213l-.161.348H950.582c-1.557-2.367-3.048-4.7-4.451-6.968-8.945-14.471-14.335-26.543-10.493-30.521,6.381-6.608,34.063,13.408,40.074,6.463,3.594-4.151-4.187-13.731-10.323-28.373a77,77,0,0,1-6.482-29.8,71.849,71.849,0,0,1,3.872-23.257c4.281-2.855,10.791-6.145,18.1-5.182a24.245,24.245,0,0,1,12.85,6.322C1001.011,445.752,1001.817,477.982,991.929,510.7Z" transform="translate(-813.933 -364.791)" fill="#678b99"/>
          <path id="Path_83841" data-name="Path 83841" d="M873.593,356.95c-14.481-41.508-21.966-52.084-26.066-51.278-4.816.946-5.907,17.787-3.823,29.488,2.38,13.356,9.487,23.3,16.883,30.324C866.637,371.229,876.339,364.829,873.593,356.95Z" transform="translate(-764.558 -305.63)" fill="#678b99"/>
        </g>
      </g>
      <path id="Path_83842" data-name="Path 83842" d="M95.19,679.738c.11.133.219.266.33.4q5.316,6.41,11.1,12.516.5.534,1.015,1.065.815.854,1.642,1.7h0q1.5,1.536,3.024,3.049a275.4,275.4,0,0,0,37.717,31.26q5.664,3.9,11.5,7.5,7.14,4.411,14.487,8.34c28.146,15.051,58.212,24.546,87.059,26.321q1.657.1,3.3.193h0q1.233.07,2.457.132a478.728,478.728,0,0,0,64.868-.823q2.186-.185,4.344-.391,12.108-1.154,23.368-2.965c50.993-8.151,89.174-25.874,117.058-48.436h0q3.671-2.97,7.107-6.048,4.593-4.116,8.773-8.405,2.346-2.4,4.562-4.852l.191-.211a173.092,173.092,0,0,0,24.747-35.427q2.073-3.933,3.905-7.9l.161-.348.554-1.213c-11.511-1.942-24.188-3.806-37.92-5.408q-13.368-1.56-28.042-2.739-3.226-.254-6.511-.483h0q-3.019-.213-6.086-.4h-.009q-1.775-.109-3.567-.211h-.009q-1.824-.105-3.664-.2l-1.754-.09q-1.933-.1-3.885-.185-14.873-.66-30.772-.731h0q-3.528-.01-7.1.012h0q-10.147.066-20.67.423-2.284.079-4.509.169-1.03.041-2.047.087l-1.108.05h0c-30.946,1.4-53.719,4.528-83.2,8.44-5.348.709-10.918,1.444-16.8,2.2h0l-1.061.138-3.851.491-3.839.482h0c-6,.749-12.326,1.513-19.064,2.289q-1.714.2-3.464.4l-.964.109q-3.373.38-6.884.764-3.418.374-6.966.747-2.261.239-4.569.476-9.422.969-19.7,1.924h0q-3.906.361-7.932.717-3.669.323-7.438.642-1.866.159-3.754.314l-.5.041-1.765.144q-4.241.344-8.6.68-16.336,1.253-34.308,2.333-3.793.225-7.658.44h0q-1.754.1-3.517.191-5.857.316-11.873.6-5.849.28-11.847.532-2.973.126-5.984.243h0q-2.38.092-4.781.18-1.048.04-2.1.076,1.976,2.628,4.033,5.21Q93.775,678.025,95.19,679.738Z" transform="translate(-74.809 -441.516)" fill="#7f8440"/>
      <path id="Path_83843" data-name="Path 83843" d="M120.935,687.9H78.246q1.646,2.354,3.359,4.674.481.652.966,1.3l.335.445q1.976,2.628,4.033,5.21,1.379,1.734,2.794,3.446c.11.133.219.266.33.4q5.316,6.41,11.1,12.516.5.534,1.015,1.065.815.854,1.642,1.7h0q1.5,1.536,3.024,3.049a275.39,275.39,0,0,0,37.717,31.26q5.664,3.9,11.5,7.505,7.14,4.411,14.487,8.34c28.146,15.051,58.212,24.546,87.059,26.321q1.657.1,3.3.193h0q1.233.07,2.457.132a478.737,478.737,0,0,0,64.868-.823q2.186-.185,4.344-.391,12.108-1.154,23.368-2.964C406.939,783.126,445.12,765.4,473,742.841h0q3.671-2.97,7.107-6.048,4.593-4.116,8.773-8.405,2.346-2.4,4.562-4.852l.191-.211A173.093,173.093,0,0,0,518.384,687.9Z" transform="translate(-69.352 -464.755)" fill="#455875"/>
    </g>
    <g id="Group_163340" data-name="Group 163340" transform="translate(310.575 374.175)">
      <path id="Path_83844" data-name="Path 83844" d="M699.44,678.252c1.915,3.167,5.381,4.193,7.522,3.009a5.249,5.249,0,0,0,2.257-3.762c1.971,2.419,5.307,2.388,6.772.753a4.434,4.434,0,0,0,0-5.267c4.25.621,7.837-2.086,8.277-5.267a6.566,6.566,0,0,0-3.01-6.019c3.294-2.013,4.5-4.791,3.762-6.019-.587-.977-2.52-1.172-4.515-.753a6.156,6.156,0,0,0,0-7.522c-2.064-2.423-6.306-2.682-9.029,0,2.893-5.462,1.6-11-1.5-12.791-2.3-1.321-5.145-.34-6.019,0,.116-2.365-1.665-3.923-3.01-3.762a3.139,3.139,0,0,0-2.257,3.01c-.586-4.381-4.349-7.17-7.522-6.772-3.559.446-6.755,4.944-5.267,9.783-.121-.083-2.346-1.561-3.762-.752s-1.938,3.8,0,6.771c-2.528-.379-3.547.542-3.762.753-1.647,1.615-1.184,5.829,2.258,9.783-3.176-3.126-7.925-2.574-9.783,0-1.406,1.95-1.2,5.122.753,7.522-.117-.01-2.569-.185-3.762,1.5-1.158,1.639-.692,4.411,1.5,6.02-2.958,2.844-2.579,6.912-.752,8.276,1.534,1.146,4.586.755,6.772-1.5a4.757,4.757,0,0,0,3.009,3.762c2.215.692,5.085-.8,6.019-3.762a5.478,5.478,0,0,0,10.536,3.006c-.151,1.387.073,2.695.752,3.009C696.52,681.649,698.235,680.595,699.44,678.252Z" transform="translate(-667.168 -627.052)" fill="#28270e"/>
      <path id="Path_83845" data-name="Path 83845" d="M712.093,702.849a.834.834,0,0,1,.831-.724h0a.841.841,0,0,1,.836.778,31.821,31.821,0,0,0,.7,4.489c1.049,4.573,3.682,8.116,5.267,10.534,2.869-1.434,5.737-9.02,10.56-11.029a.816.816,0,0,1,1.046.384l.067.135a.8.8,0,0,1-.342,1.071c-6.015,3.1-5.448,8.771-9.073,10.947q.377,10.533.753,21.067h-6.772l1.5-21.819a18.492,18.492,0,0,1-3.762-5.267A19.089,19.089,0,0,1,712.093,702.849Z" transform="translate(-691.271 -667.481)" fill="#51261e"/>
    </g>
    <g id="Group_163341" data-name="Group 163341" transform="translate(353.797 340.47)">
      <path id="Path_83846" data-name="Path 83846" d="M805.281,614.462c1.565-2.815-6.575-9.853-7.6-10.728,1.145-.554,1.306-1.132,1.341-1.341.188-1.144-1.523-2.7-4.47-3.576,3.359.055,4.211-.78,4.47-1.341,1.136-2.46-5.456-7.639-7.153-8.94q3.071.805,3.576,0,.738-1.179-4.023-5.811c.26-.043,3.946-.687,4.47-2.682.5-1.92-1.928-5.057-6.705-6.259,2,.153,3.718-.415,4.023-1.341.359-1.084-1.079-3.1-4.023-4.023,1.594-1.438,1.628-3.372.894-4.023-.6-.535-1.954-.4-3.129.447,0,0,.5-9.6-4.023-10.728-3.576-.894-6.705,4.47-7.153,9.387-2.893.084-4.853.92-4.917,1.788-.056.762,1.344,1.645,3.129,2.235-3.756,2.157-4.519,4.493-4.023,5.811.076.2.523,1.2,3.576,1.341-3.588,3.187-5.327,6.218-4.47,7.6.18.29.788,1.015,3.129.894-4.757,3.676-6.881,7.562-5.811,9.387.15.257.959,1.488,4.47,1.341-3.276,2.054-4.672,4.615-4.023,5.811.7,1.285,3.71.934,4.023.894-1.364,1.214-7.732,5.8-6.705,7.6.237.415,1.073,1.168,4.917.447-6.856,5.588-8.942,8.865-8.046,10.728.538,1.12,1.581,2.013,4.917,1.788-3.5,3.017-5.538,5.765-4.917,6.705.588.894,3.614.206,7.153-1.341-3.949,5.484-4.43,10.719-2.682,12.069,1.625,1.255,5.9-.291,9.834-4.023-.873,2.492-1.079,4.984,0,5.811,1.322,1.012,4.781-.311,8.046-4.023,1.868,2.923,4.55,4.22,5.811,3.576,1.345-.687,1.93-4.015,0-7.6,4.4,5.439,9.406,7.549,11.176,6.259,1.7-1.241,1.25-6.24-1.788-11.623q5.166,1.491,6.258,0,1.678-2.291-6.258-11.622C803.955,616.2,805.01,614.947,805.281,614.462Z" transform="translate(-760.829 -554.017)" fill="#3d3c17"/>
      <path id="Path_83847" data-name="Path 83847" d="M797.787,716.248h8.661c-.5-3.481-.807-7.148-1.154-10.971a127.974,127.974,0,0,1,.965-30.4,1.461,1.461,0,0,0-1.161-1.633l-.029-.006a1.462,1.462,0,0,0-1.736,1.244,202.61,202.61,0,0,0-1.5,20.974c-1.148-1.094-4.831-8.257-6.322-12.013a1.619,1.619,0,0,0-2.049-.952,1.583,1.583,0,0,0-.892,2.123,56.263,56.263,0,0,0,2.911,5.644c1.151,1.953,2.907,4.839,4.042,6.352.173,3.124-.369,5.455-.577,9.239a94.246,94.246,0,0,1-1.155,10.393Z" transform="translate(-777.848 -618.208)" fill="#51261e"/>
    </g>
    <g id="Group_163343" data-name="Group 163343" transform="translate(174.007 321.471)">
      <path id="Path_83848" data-name="Path 83848" d="M371.474,586.263c-1.9-3.419,7.984-11.967,9.229-13.031-1.391-.67-1.587-1.374-1.629-1.629-.228-1.389,1.846-3.276,5.43-4.343-4.08.067-5.115-.947-5.43-1.629-1.379-2.988,6.626-9.279,8.687-10.859q-3.73.977-4.343,0-.9-1.431,4.887-7.058c-.316-.052-4.793-.835-5.43-3.258-.613-2.332,2.342-6.141,8.144-7.6-2.432.185-4.516-.508-4.886-1.629-.436-1.317,1.311-3.763,4.886-4.887-1.935-1.747-1.977-4.1-1.086-4.887.734-.65,2.373-.489,3.8.543,0,0-.613-11.656,4.887-13.031,4.343-1.086,8.144,5.429,8.687,11.4,3.513.1,5.895,1.118,5.972,2.172.068.926-1.633,2-3.8,2.715,4.562,2.62,5.489,5.457,4.887,7.061-.092.245-.635,1.462-4.344,1.629,4.359,3.872,6.47,7.553,5.43,9.23-.219.352-.957,1.231-3.8,1.086,5.777,4.465,8.357,9.183,7.061,11.4-.185.312-1.165,1.807-5.429,1.629,3.981,2.495,5.676,5.6,4.887,7.058-.846,1.56-4.506,1.134-4.887,1.086,1.657,1.474,9.39,7.042,8.144,9.23-.288.508-1.3,1.418-5.972.543,8.327,6.786,10.86,10.768,9.773,13.031-.653,1.359-1.921,2.446-5.972,2.172,4.252,3.665,6.724,7,5.972,8.144-.715,1.086-4.39.251-8.687-1.629,4.8,6.661,5.38,13.02,3.258,14.659-1.974,1.523-7.164-.354-11.945-4.887,1.061,3.028,1.312,6.055,0,7.061-1.605,1.229-5.806-.378-9.773-4.886-2.268,3.55-5.526,5.126-7.061,4.343-1.633-.834-2.345-4.876,0-9.229-5.345,6.606-11.425,9.169-13.573,7.6-2.066-1.507-1.518-7.579,2.172-14.117q-6.276,1.812-7.6,0-2.038-2.783,7.6-14.117C373.084,588.371,371.8,586.855,371.474,586.263Z" transform="translate(-371.232 -512.846)" fill="#3d3c17"/>
      <path id="Path_83849" data-name="Path 83849" d="M423.993,709.9H413.471c.6-4.228.981-8.683,1.4-13.325a155.472,155.472,0,0,0-1.173-36.918,1.775,1.775,0,0,1,1.409-1.984l.035-.007a1.775,1.775,0,0,1,2.108,1.51,245.953,245.953,0,0,1,1.828,25.473c1.394-1.328,5.868-10.029,7.678-14.59a1.967,1.967,0,0,1,2.489-1.154,1.924,1.924,0,0,1,1.083,2.579,68.362,68.362,0,0,1-3.534,6.855c-1.4,2.372-3.531,5.877-4.909,7.714-.21,3.795.448,6.626.7,11.222A114.483,114.483,0,0,0,423.993,709.9Z" transform="translate(-393.978 -590.814)" fill="#51261e"/>
      <g id="Group_163342" data-name="Group 163342" transform="translate(26.652 0)">
        <path id="Path_83850" data-name="Path 83850" d="M431.352,514.595a7.359,7.359,0,0,0-2.366-1.36,4.08,4.08,0,0,1,.738-.269c4.343-1.086,8.144,5.429,8.687,11.4,3.513.1,5.895,1.118,5.972,2.172.068.926-1.633,2-3.8,2.715,4.562,2.62,5.489,5.457,4.887,7.061-.092.245-.635,1.462-4.344,1.629,4.359,3.872,6.47,7.552,5.43,9.229-.219.352-.957,1.231-3.8,1.086,5.777,4.465,8.357,9.183,7.061,11.4-.185.312-1.165,1.807-5.429,1.629,3.981,2.495,5.676,5.6,4.887,7.058-.846,1.56-4.506,1.134-4.887,1.086,1.657,1.474,9.39,7.042,8.144,9.229-.288.508-1.3,1.418-5.972.543,8.327,6.786,10.86,10.768,9.773,13.031-.653,1.359-1.921,2.446-5.972,2.172,4.252,3.665,6.724,7,5.972,8.144-.714,1.085-4.384.253-8.673-1.622a11.328,11.328,0,0,0-3.272-6.522c2.2-.072,4-1.283,4.343-2.715.446-1.874-1.48-4.644-4.887-4.886.719-.2,3.2-.923,3.8-2.715.813-2.422-1.918-6.429-7.6-8.687a3.721,3.721,0,0,0,2.172-2.172c.45-1.808-1.368-4.412-4.886-5.429,2.81-.247,5.249-1.725,5.972-3.8,1.052-3.02-1.425-7.593-6.516-8.687a3.058,3.058,0,0,0-.543-5.972A7.7,7.7,0,0,0,439.5,541.2a7.782,7.782,0,0,0-4.344-4.887,3.689,3.689,0,0,0,1.086-4.343,3.781,3.781,0,0,0-5.429-1.086C435.509,525.083,435.059,517.813,431.352,514.595Z" transform="translate(-428.986 -512.846)" fill="#4f4f20" opacity="0.66"/>
        <path id="Path_83851" data-name="Path 83851" d="M454.633,716.263a6.838,6.838,0,0,0-2.872-6.558c.4.135,4.268,1.384,6.515-.543a6.14,6.14,0,0,0,1.646-5.405c4.781,6.653,5.361,13,3.241,14.635C461.655,719.557,458.275,718.732,454.633,716.263Z" transform="translate(-441.251 -615.656)" fill="#4f4f20" opacity="0.66"/>
      </g>
    </g>
    <path id="Path_83852" data-name="Path 83852" d="M527.01,756.1l-.191.211q-2.218,2.449-4.562,4.852-4.182,4.286-8.773,8.405-3.435,3.075-7.107,6.048h0c-27.884,22.562-66.067,40.287-117.058,48.436q-11.264,1.8-23.368,2.965-2.158.206-4.344.391a478.754,478.754,0,0,1-64.868.823q-1.226-.063-2.457-.132h0q-1.645-.09-3.3-.193c-28.846-1.775-58.912-11.271-87.059-26.321q-7.337-3.922-14.487-8.34-5.827-3.6-11.5-7.505a275.389,275.389,0,0,1-37.717-31.26q8.188-.525,16.382-1,14.1-.82,28.2-1.494,3.346-.162,6.691-.313,3.5-.16,7-.31,3.763-.162,7.525-.314,10.212-.413,20.429-.749h0q3.935-.129,7.871-.248,4.246-.13,8.491-.244,12.288-.336,24.585-.562l.858-.016q3.684-.068,7.37-.124,66.65-1.042,133.527,1.024,2.578.078,5.157.162,16.488.536,32.99,1.257,3.657.158,7.316.329c.253.011.508.023.761.036q11.968.554,23.945,1.208,5.057.274,10.117.568,14.62.846,29.249,1.836,3.995.27,7.99.551Q526.844,756.089,527.01,756.1Z" transform="translate(-72.819 -318.42)" fill="#3d3c17"/>
    <g id="Group_163346" data-name="Group 163346" transform="translate(9.529 236.069)">
      <path id="Path_83853" data-name="Path 83853" d="M102.366,474.937a1.251,1.251,0,0,0-.006-.149c0-.038,0-.077-.006-.117s-.008-.1-.012-.15-.011-.1-.016-.152-.009-.079-.015-.12-.012-.08-.018-.121-.017-.107-.026-.16-.018-.1-.029-.146-.019-.1-.03-.148-.018-.079-.027-.12-.016-.071-.025-.106-.019-.075-.03-.113a.183.183,0,0,0,0-.022.305.305,0,0,1-.009-.034c-.019-.07-.04-.138-.06-.21-.015-.051-.031-.1-.046-.155q-.042-.138-.092-.277c-.015-.04-.028-.079-.043-.12-.029-.079-.06-.16-.092-.241-.02-.054-.042-.108-.065-.163s-.046-.109-.068-.165c-.046-.11-.1-.222-.147-.335-.012-.027-.025-.057-.039-.085s-.027-.056-.04-.085-.035-.072-.052-.11-.037-.079-.058-.119l-.013-.029-.055-.109q-.024-.046-.046-.1l-.03-.057c-.012-.026-.026-.051-.04-.078l-.041-.077c0-.008-.007-.015-.012-.023-.024-.046-.046-.089-.073-.133,0-.007-.006-.015-.011-.023l-.012-.023-.108-.2-.082-.143c-.018-.029-.036-.06-.054-.092l-.03-.054c-.01-.018-.024-.04-.036-.06s-.018-.031-.028-.046c-.023-.04-.046-.081-.072-.122l-.039-.065-.088-.138-.118-.189c-.054-.087-.11-.173-.166-.26l-.006-.012c-.055-.083-.11-.167-.167-.251l-.07-.1c-.034-.051-.069-.1-.106-.155a.06.06,0,0,0-.008-.012l-.116-.167c-.022-.033-.046-.065-.068-.1l-.051-.072q-.07-.1-.143-.2l-.111-.154-.09-.123-.122-.165c-.018-.025-.037-.051-.057-.076-.043-.058-.087-.116-.132-.174q-.435-.572-.928-1.173l-.1-.119q-.112-.131-.222-.266c-.075-.089-.151-.179-.231-.269l-.192-.225c-.09-.1-.181-.209-.274-.314l-.2-.231,0,0c-.172-.193-.349-.39-.528-.588l-.274-.3-.035-.039-.245-.263c-.075-.081-.151-.162-.231-.243s-.155-.164-.231-.246q-1.059-1.108-2.29-2.3l-.277-.266q-.554-.536-1.147-1.085l-.287-.267q-.353-.327-.719-.659l-.244-.222q-.656-.6-1.35-1.207l-.241-.211c-.1-.088-.2-.173-.294-.258l-.3-.259q-1.286-1.12-2.7-2.3l-.467-.389q-.668-.554-1.366-1.123c8.783,1.646,10.693-.071,11.234-1.022a1.8,1.8,0,0,0,.1-.2c.009-.021.018-.046.026-.066a.878.878,0,0,0,.032-.092c.006-.018.012-.036.016-.055a.53.53,0,0,0,.017-.06c.008-.031.015-.061.021-.092a.792.792,0,0,0,.016-.085c.009-.059.017-.118.022-.177a.247.247,0,0,0,0-.041v-.03a1.892,1.892,0,0,0,0-.2v-.059a1.363,1.363,0,0,0-.012-.153.469.469,0,0,0-.008-.067,3.284,3.284,0,0,0-.082-.415c-.008-.032-.017-.065-.026-.1s-.019-.066-.03-.1-.02-.067-.032-.1-.025-.075-.039-.112-.026-.073-.041-.109c-.024-.065-.05-.128-.078-.194-.012-.027-.023-.054-.036-.082s-.037-.085-.058-.127-.04-.086-.061-.13c-.042-.086-.086-.174-.134-.263-.025-.046-.051-.092-.077-.138-.13-.231-.277-.472-.438-.714-.04-.061-.08-.121-.123-.185-.081-.117-.165-.237-.252-.356L93.431,447c-.068-.092-.138-.187-.213-.283-.035-.046-.072-.092-.108-.138-.164-.209-.334-.419-.514-.631l-.1-.123c-.027-.033-.055-.067-.085-.1s-.057-.066-.085-.1q-.321-.369-.668-.743l-.215-.231a.149.149,0,0,0-.018-.019c-.089-.092-.179-.189-.27-.283-.242-.251-.492-.5-.748-.757-.083-.083-.167-.165-.251-.246l-.284-.277c-.082-.078-.163-.158-.246-.236l-.177-.168-.179-.167c-.12-.113-.239-.224-.36-.334-.085-.079-.17-.158-.257-.236l-.165-.15c-.11-.1-.22-.2-.33-.3l-.5-.446q-.167-.148-.334-.294h0c-.111-.1-.222-.2-.335-.293s-.224-.194-.335-.289q-.334-.289-.668-.571c-.111-.1-.223-.189-.333-.281-.083-.07-.166-.138-.248-.208-1.128-.945-2.215-1.823-3.164-2.589-.092-.076-.185-.149-.274-.221-.18-.145-.356-.286-.524-.423l-.343-.277c-.3-.242-.576-.467-.825-.673l-.155-.128c-.133-.11-.258-.216-.369-.313-.039-.033-.075-.064-.11-.1-.065-.055-.124-.107-.181-.158.716.092,7.6.892,9.192-2.042,1.483-2.736-1.7-8.583-9.192-13.276,8.022.336,9.869-2.477,10.212-3.064,2.444-4.171-2.408-13.048-13.277-21.446.709.036,1.349.038,1.927.012.185-.007.361-.018.533-.031l.185-.016c.114-.011.225-.022.334-.034s.215-.026.317-.041a9.936,9.936,0,0,0,.988-.187c.085-.021.168-.042.248-.064.166-.046.323-.095.469-.147l.118-.043c.071-.025.138-.051.2-.078l.084-.035c.151-.065.291-.132.418-.2.046-.024.088-.046.128-.072l.089-.053.07-.043c.069-.043.134-.086.2-.132l.083-.061.051-.04c.03-.023.058-.046.085-.069l.037-.032c.024-.019.046-.04.068-.06l.081-.076c.026-.025.054-.054.08-.082s.061-.067.089-.1.03-.034.043-.05l.036-.046a2.369,2.369,0,0,0,.148-.205c.014-.021.027-.04.039-.059,1.957-3.156-2.015-10.08-10.212-17.363,6.975-.314,8-2.6,8.168-3.063,1.133-3.011-.611-8.348-9.192-13.276,4.078-1.349,7.277-3.366,7.149-5.107-.145-1.984-4.626-3.894-11.234-4.085-1.02-11.234-8.168-23.489-16.34-21.448-.061.015-.122.032-.182.049-10.149,2.8-9.01,24.462-9.01,24.462-2.684-1.941-5.768-2.244-7.148-1.021-1.678,1.486-1.6,5.9,2.042,9.192-6.726,2.114-10.011,6.714-9.192,9.191.7,2.109,4.615,3.412,9.192,3.063-6.167,1.551-10.623,4.515-13.124,7.589-1.928,2.367-2.7,4.8-2.195,6.709,1.2,4.558,9.618,6.029,10.212,6.127q-10.88,10.587-9.189,13.281,1.154,1.839,8.171,0c-3.876,2.972-18.936,14.8-16.341,20.425.591,1.282,2.538,3.189,10.212,3.064-4.731,1.409-8.064,3.579-9.481,5.651q.721,2.584,1.535,5.159l.277.869a181.868,181.868,0,0,0,11.856,28.2q2.677,5.152,5.679,10.2,1.751,2.944,3.605,5.846,1.968,3.084,4.051,6.118.614.9,1.238,1.785,1.646,2.354,3.359,4.674.481.652.966,1.3l.335.445q1.976,2.628,4.033,5.21,1.379,1.734,2.794,3.446c.11.133.219.266.33.4q5.316,6.41,11.1,12.516.5.534,1.015,1.065.815.854,1.642,1.7c.03-.032.058-.065.085-.1s.075-.092.111-.142c.065-.087.125-.176.185-.269.016-.025.031-.051.046-.078s.039-.065.056-.1.024-.043.036-.066a.124.124,0,0,0,.01-.018c.02-.036.038-.074.057-.111.027-.056.054-.114.081-.172v-.006c.053-.12.1-.245.148-.374a7.246,7.246,0,0,0,.359-1.574c.323-2.641-.327-6.26-1.594-9.879A44.272,44.272,0,0,0,81.6,520.36a19.8,19.8,0,0,0,5.379,1.572h.012c.11.012.218.025.326.035.174.016.344.027.513.035l.2.006q.245.007.484,0l.09,0h.018l.086,0h.05a.393.393,0,0,0,.061,0,1.333,1.333,0,0,0,.135-.01l.133-.012H89.1l.035,0,.032,0c.042,0,.085-.007.127-.012.074-.009.145-.021.217-.033l.053-.009h.017c.059-.01.118-.022.176-.033q.215-.042.415-.1l.067-.019c.116-.033.231-.071.34-.111l.068-.026c.1-.039.2-.082.3-.13.042-.019.084-.04.125-.061s.08-.04.12-.061.089-.05.132-.077c.028-.016.057-.034.085-.052s.06-.038.09-.06.04-.026.06-.041c.046-.033.1-.068.143-.1s.072-.058.109-.089a.007.007,0,0,0,.006,0l.035-.029c.037-.03.074-.064.109-.1s.063-.059.092-.09.049-.049.073-.074.067-.069.1-.106.06-.067.089-.1c.012-.014.024-.027.036-.042s.043-.051.064-.078l.038-.05c.033-.043.067-.087.1-.133s.065-.092.1-.138.068-.1.1-.157.066-.108.1-.163c.062-.11.123-.225.18-.343.027-.054.054-.111.078-.168s.046-.107.071-.161c.012-.026.022-.053.033-.081s.033-.082.049-.124.025-.065.036-.1c.031-.082.06-.166.088-.252.018-.055.036-.113.053-.169a.791.791,0,0,0,.026-.085c0-.017.009-.034.015-.053a.155.155,0,0,0,.008-.026c.012-.036.022-.074.031-.112s.025-.092.036-.141c.024-.092.046-.19.068-.286l.034-.16c.023-.108.046-.218.063-.329.028-.166.054-.338.077-.512a.062.062,0,0,0,0-.016c.014-.111.026-.224.037-.339a15.438,15.438,0,0,0,.071-1.768c0-.084,0-.168-.006-.254,0-.064,0-.126-.007-.191,0-.082-.007-.165-.012-.249,0-.049,0-.1-.008-.146s-.006-.092-.009-.141-.007-.092-.011-.142c-.006-.092-.013-.19-.023-.287s-.018-.2-.028-.3c-.007-.074-.015-.149-.024-.224s-.019-.168-.03-.252c-.014-.107-.027-.215-.042-.323s-.034-.245-.054-.369c-.01-.068-.02-.138-.032-.207-.026-.165-.054-.33-.084-.5l-.07-.373c-.024-.125-.05-.252-.076-.378q-.03-.15-.065-.3c-.017-.078-.034-.157-.052-.235-.04-.18-.083-.361-.129-.543-.063-.26-.133-.524-.205-.791q-.055-.2-.113-.4-.092-.331-.2-.666l-.072-.231c-.026-.086-.054-.173-.083-.259-.055-.173-.114-.347-.173-.521q-.217-.64-.466-1.292-.073-.195-.15-.39-.138-.354-.287-.714c-.049-.12-.1-.24-.15-.36s-.106-.25-.16-.375c-.1-.231-.2-.464-.309-.7q-.173-.375-.351-.755c-.057-.118-.112-.234-.169-.354h0q-.168-.342-.345-.688-.365-.723-.769-1.455c-.1-.176-.194-.352-.294-.529-.037-.068-.076-.138-.117-.206q-.21-.369-.43-.738t-.448-.742c-.057-.092-.114-.185-.173-.277s-.116-.185-.175-.28-.118-.188-.178-.281l-.181-.281q-.24-.374-.494-.749c-.231-.347-.47-.692-.714-1.04q-.18-.255-.364-.511l.027.012.513.221q.329.141.654.277h0q.586.247,1.164.478l.253.1.448.176c.185.072.372.143.554.214l.051.019.3.114.3.11q.447.166.883.318l.291.1c.192.068.384.133.573.2.058.021.117.04.175.058.084.028.167.056.25.082s.165.055.248.081l.074.024c.138.046.277.087.415.13.225.069.448.136.667.2l.252.073.218.061.217.06.215.058.211.055c.2.051.388.1.577.146l.157.038.092.022c.117.027.231.054.347.08q.393.087.766.158c.124.024.248.046.369.067.158.027.313.053.461.075l.245.035.035,0,.185.024.181.022.177.018c.092.01.18.018.267.024l.192.015.152.009c.064,0,.127.007.189.008s.118,0,.176,0h.385c.07,0,.138,0,.2-.008l.165-.01a.182.182,0,0,0,.05,0c.058,0,.116-.01.172-.017l.1-.012c.034,0,.068-.008.1-.015.068-.01.134-.022.2-.034l.132-.029c.043-.01.1-.023.143-.035s.09-.026.133-.04l.086-.029.036-.013c.027-.009.053-.019.079-.031s.041-.016.06-.025l.054-.025a2.166,2.166,0,0,0,.243-.132c.027-.017.054-.035.079-.053s.051-.037.075-.057a1.482,1.482,0,0,0,.18-.168,1.381,1.381,0,0,0,.089-.109c.014-.018.027-.037.04-.057a1.372,1.372,0,0,0,.11-.2c.016-.036.031-.073.043-.11a1.074,1.074,0,0,0,.033-.108.138.138,0,0,0,.008-.032c.006-.026.013-.052.018-.079a.267.267,0,0,0,.007-.037c.006-.034.012-.07.016-.106a2.26,2.26,0,0,0,.016-.267c0-.042,0-.085,0-.13s0-.078-.008-.116a.388.388,0,0,0-.006-.051.078.078,0,0,0,0-.023c-.006-.058-.014-.119-.025-.181a.075.075,0,0,0,0-.012c0-.02-.007-.041-.012-.061-.006-.038-.014-.076-.023-.114-.018-.09-.041-.182-.068-.277,0-.009-.006-.018-.008-.027-.015-.052-.031-.1-.046-.158a.068.068,0,0,1,0-.015c-.016-.046-.031-.1-.05-.147-.033-.1-.071-.2-.111-.3-.027-.067-.056-.138-.086-.205l-.019-.046-.059-.131q-.08-.177-.174-.362c-.023-.046-.046-.092-.073-.142a.1.1,0,0,0-.015-.028c-.032-.061-.065-.124-.1-.185s-.078-.141-.118-.213-.075-.13-.114-.2l-.118-.2c-.081-.134-.166-.27-.256-.408s-.162-.251-.25-.379l-.061-.092c-.084-.125-.173-.252-.265-.381-.046-.068-.1-.138-.148-.207a.073.073,0,0,0-.011-.015c-.1-.144-.213-.291-.323-.439l-.006-.007c-.114-.151-.231-.3-.352-.458q-.091-.116-.185-.231-.185-.234-.384-.473c-.16-.2-.327-.393-.5-.593l-.173-.2q-.164-.189-.334-.382-.13-.149-.265-.3-.225-.253-.461-.508c-.114-.124-.231-.247-.347-.372l-.177-.187q-.231-.244-.469-.49c-.081-.084-.164-.168-.245-.252-.046-.049-.092-.1-.142-.144-.088-.092-.177-.179-.267-.269l-.062-.062c-.022-.022-.042-.043-.064-.064-.155-.156-.313-.311-.472-.466l-.2-.2q-1-.974-2.111-1.979l-.289-.26c-.114-.1-.231-.207-.347-.31q-.525-.467-1.071-.938c7.622.515,10.005-1.528,11.234-4.085.036-.076.072-.155.1-.231.022-.054.043-.109.064-.164.015-.039.029-.078.041-.118s.025-.076.036-.115.03-.1.046-.156a.121.121,0,0,0,.006-.02c.007-.026.014-.051.019-.078s.016-.066.023-.1.019-.1.029-.143c.014-.068.025-.138.034-.207.008-.053.015-.107.02-.161,0-.03.006-.059.008-.087l.007-.084c0-.039,0-.078.007-.119v-.013c0-.082.006-.164.006-.248C102.368,475.029,102.367,474.984,102.366,474.937Z" transform="translate(-14.814 -327.784)" fill="#4f4f20"/>
      <path id="Path_83854" data-name="Path 83854" d="M119.522,620.139c0,.084,0,.166-.006.248v.013l-.007.119c0,.028,0,.057-.007.084s0,.058-.008.087c-.006.055-.012.108-.02.161-.009.069-.02.138-.034.207-.009.046-.018.1-.029.143-.006.033-.015.066-.023.1s-.012.051-.019.078a.121.121,0,0,1-.006.02c-.014.052-.029.1-.046.156s-.024.076-.036.115-.026.079-.041.118c-.02.054-.042.109-.064.164-.032.078-.067.157-.1.231-1.228,2.557-3.612,4.6-11.234,4.085q.545.47,1.071.938l.347.31.289.26q1.108,1,2.111,1.979l.2.2c.159.156.317.31.472.466.022.02.042.042.064.064l.062.062c.09.092.18.179.267.27.046.046.1.1.142.144.082.084.165.168.246.252q.239.246.469.49l.177.187c.118.125.233.248.347.372q.238.255.461.508.134.148.265.3.17.192.334.382l.173.2c.172.2.339.4.5.593q.2.239.384.473l.185.231c.12.153.239.307.352.458l.006.007c.111.148.22.294.323.439a.074.074,0,0,1,.011.015c.05.069.1.138.148.207.092.128.181.256.265.381.021.03.041.059.061.092.088.128.171.254.25.379s.175.274.256.408c.04.066.08.133.118.2s.078.131.114.2.081.142.118.213.067.125.1.185a.1.1,0,0,1,.015.028c.025.046.05.1.073.142.062.123.12.244.174.362.02.046.04.087.059.131.006.016.013.03.019.046.03.069.059.138.086.205.041.1.078.2.111.3.018.05.034.1.05.147a.07.07,0,0,0,0,.015c.017.053.033.106.046.158a.087.087,0,0,0,.008.027q.041.138.068.277c.009.038.017.076.023.115,0,.021.008.041.012.061a.074.074,0,0,1,0,.012c.011.062.019.123.025.181a.078.078,0,0,1,0,.023.385.385,0,0,0,.006.051c0,.038.007.077.008.116s0,.088,0,.13a2.259,2.259,0,0,1-.016.267c0,.036-.009.072-.016.106a.266.266,0,0,1-.007.037c0,.027-.012.053-.018.079a.139.139,0,0,1-.008.032,1.069,1.069,0,0,1-.033.108c-.012.037-.027.074-.043.11a1.379,1.379,0,0,1-.11.2c-.012.019-.026.039-.04.057a1.4,1.4,0,0,1-.089.109,1.488,1.488,0,0,1-.18.168c-.024.019-.049.039-.075.057s-.052.036-.079.053a2.165,2.165,0,0,1-.243.132l-.054.025-.06.025c-.02.008-.052.022-.079.031l-.036.012-.086.03c-.043.013-.087.027-.133.04s-.092.025-.143.035l-.132.029c-.064.012-.13.024-.2.034-.034.007-.068.011-.1.015l-.1.012c-.056.007-.114.012-.172.017-.017,0-.033,0-.05,0l-.165.01-.2.008c-.125,0-.253,0-.385,0-.058,0-.117,0-.176,0s-.125,0-.189-.008-.1-.005-.152-.009l-.192-.015c-.088-.006-.176-.014-.267-.024l-.177-.018-.181-.022-.185-.024-.035,0-.245-.035c-.151-.023-.305-.046-.461-.075-.12-.02-.244-.043-.369-.067q-.373-.072-.766-.158c-.115-.025-.231-.053-.347-.08l-.092-.022-.157-.038c-.19-.046-.382-.092-.577-.146l-.211-.055-.215-.058-.217-.06-.218-.061c-.084-.024-.168-.046-.252-.073-.219-.064-.442-.131-.667-.2q-.208-.064-.415-.13l-.074-.024-.248-.081-.25-.082c-.058-.018-.117-.037-.175-.058-.189-.062-.381-.127-.573-.2l-.291-.1q-.437-.151-.883-.318l-.3-.11c-.1-.036-.2-.075-.3-.114l-.051-.019c-.185-.071-.369-.141-.554-.214-.149-.058-.3-.116-.448-.176l-.253-.1q-.577-.231-1.164-.478h0l-.654-.277-.513-.221-.027-.011q.185.256.364.511c.244.347.483.692.714,1.04q.254.375.494.749c.061.092.121.187.181.281l.178.281c.059.093.117.185.175.28s.116.185.173.277q.231.372.448.742t.43.738c.041.068.08.138.117.206.1.177.2.353.294.529q.4.732.769,1.455.177.346.345.688h0c.058.119.112.235.169.354q.179.38.351.755c.106.231.208.466.309.7.054.125.108.25.16.375s.1.24.15.36q.15.36.287.714.077.2.15.39.249.655.466,1.292c.059.175.117.349.173.521.029.086.057.173.083.259s.048.153.072.231q.1.335.2.666.058.2.113.4c.072.267.142.531.205.791.046.182.089.364.129.543.018.078.035.157.052.235q.034.15.065.3c.026.126.051.252.076.378s.046.249.07.373c.03.167.058.333.084.5.012.068.022.139.032.207.019.124.037.248.054.369s.028.216.042.323c.01.084.02.168.03.252s.017.15.024.224c.01.1.019.2.028.3s.016.193.023.286c0,.046.007.1.011.142s.006.092.009.141.006.1.008.146c0,.084.009.167.012.249,0,.065.006.127.007.191,0,.085,0,.169.006.254a15.435,15.435,0,0,1-.071,1.768c-.011.115-.024.227-.037.339a.063.063,0,0,1,0,.016c-.023.174-.049.346-.077.512-.018.111-.04.222-.063.329l-.034.16c-.021.1-.046.192-.068.287-.012.046-.024.092-.036.141s-.019.075-.031.112a.157.157,0,0,1-.008.026c-.006.018-.01.036-.015.053a.793.793,0,0,1-.026.085c-.017.057-.035.114-.053.169-.027.085-.057.169-.088.251-.012.033-.024.066-.036.1s-.032.083-.049.124-.021.055-.033.081q-.034.082-.071.161c-.024.053-.051.114-.078.168-.058.118-.118.231-.18.343-.031.055-.064.11-.1.163s-.066.106-.1.157-.063.092-.1.138-.066.092-.1.133l-.038.05c-.021.027-.042.053-.064.078s-.023.028-.036.042c-.028.034-.058.068-.089.1s-.065.072-.1.106-.046.049-.073.074-.061.06-.092.09-.072.066-.109.1l-.035.03s0,0-.006,0c-.036.031-.072.06-.109.089s-.095.072-.143.1c-.021.015-.04.028-.06.041s-.059.041-.09.06-.057.036-.085.052c-.043.027-.088.052-.132.077s-.079.042-.12.061-.083.042-.125.061c-.1.046-.2.092-.3.13l-.068.026c-.11.041-.224.078-.34.111l-.067.019q-.2.056-.415.1c-.058.012-.117.023-.176.033h-.017l-.053.009c-.072.012-.143.024-.217.033-.042.006-.085.008-.127.012l-.032,0-.035,0h-.012l-.133.012c-.044,0-.09.008-.135.01-.021,0-.041,0-.061,0h-.05l-.086,0h-.018l-.09,0q-.239.007-.484,0l-.2-.006c-.168-.008-.339-.019-.513-.036-.108-.01-.216-.023-.326-.035h-.012a19.793,19.793,0,0,1-5.379-1.572A44.281,44.281,0,0,1,86.4,656.9c1.267,3.619,1.919,7.238,1.594,9.879a7.247,7.247,0,0,1-.359,1.574c-.046.129-.095.254-.148.374v.006c-.026.058-.054.116-.081.172-.018.037-.036.075-.057.111a.128.128,0,0,1-.01.019c-.012.023-.023.046-.036.066s-.035.066-.056.1-.03.053-.046.078a2.844,2.844,0,0,1-.185.27c-.036.049-.072.1-.111.142s-.056.066-.085.1q-.827-.845-1.642-1.7-.508-.53-1.015-1.065-5.777-6.1-11.1-12.516l-.33-.4q-1.415-1.712-2.794-3.446-2.056-2.584-4.033-5.21L65.566,645q-.485-.649-.966-1.3-1.712-2.312-3.36-4.666-.624-.89-1.238-1.785-2.081-3.035-4.051-6.118-1.855-2.9-3.605-5.846-3-5.044-5.679-10.2a43.217,43.217,0,0,1,6.045,2.4c-1.3-12.067,5.733-20.331,11.294-20.33,4.408,0,9.263,5.193,11.294,12.424,6.056-5.193,11.814-7.762,16.433-8.621h0c3.66-.681,6.6-.29,8.412.716.48.267,1.133.612,1.924,1.023h0l.578.3c2.469,1.282,6.012,3.108,9.734,5.239l.447.472.245.263.035.039.274.3c.18.2.357.395.528.588l0,0,.2.231c.159.182.314.362.466.539l.231.269c.077.09.148.179.222.266l.1.119q.428.523.813,1.025.409.533.769,1.041l.051.072c.024.033.046.065.068.1l.116.167a.062.062,0,0,1,.008.013l.175.259c.118.176.231.351.34.523l.118.189.2.327c.032.053.064.108.092.161.092.161.185.32.268.477l.084.156.041.077c.013.025.027.051.04.077l.03.057q.025.046.046.1c.018.036.036.073.054.109,0,.009.009.019.015.029.021.04.04.079.058.119l.052.11.04.085c.013.028.027.058.039.085.051.113.1.225.147.335.023.056.046.11.068.165s.046.109.065.163c.03.081.061.162.092.241.015.041.028.081.043.12q.048.138.092.277c.017.051.033.1.046.155.024.082.046.164.068.244a.076.076,0,0,0,.006.022c.01.037.02.075.03.113s.017.071.025.106.018.081.027.12.022.1.03.148.019.1.029.146.018.108.026.16.012.082.018.121.01.081.015.12.012.1.016.152.009.1.012.15.006.078.006.117,0,.1.006.149S119.522,620.093,119.522,620.139Z" transform="translate(-31.968 -472.848)" fill="#3d3c17"/>
      <path id="Path_83855" data-name="Path 83855" d="M78.916,668.818q-.485-.649-.966-1.3-1.711-2.322-3.359-4.675-.624-.89-1.238-1.786-.252-3.109-.573-6.118c-.339-3.22-.725-6.361-1.139-9.453q-.078-.587-.158-1.17a2.584,2.584,0,0,1,2.053-2.888.251.251,0,0,0,.051-.009,2.584,2.584,0,0,1,3.07,2.2c.382,2.885.815,6.88,1.218,11.321.231,2.53.453,5.205.649,7.9.125,1.713.24,3.435.342,5.134C78.884,668.257,78.9,668.538,78.916,668.818Z" transform="translate(-45.319 -496.656)" fill="#51261e"/>
      <path id="Path_83856" data-name="Path 83856" d="M109.5,680.508q-.288.645-.593,1.3c-.88,1.9-1.871,3.88-2.987,5.921q-.745,1.362-1.569,2.76c-.252.428-.521.882-.8,1.353-.946,1.585-2.03,3.369-3.1,5.059l-.245.385-.33-.4q-1.415-1.712-2.794-3.446c.611-1.111,1.243-2.307,1.876-3.541.326-.634.653-1.279.975-1.925h0c1.048-2.1,2.062-4.232,2.927-6.164.548-1.224,1.036-2.368,1.436-3.374a2.864,2.864,0,0,1,3.624-1.683,2.8,2.8,0,0,1,1.581,3.754Z" transform="translate(-59.116 -515.625)" fill="#51261e"/>
      <g id="Group_163345" data-name="Group 163345" transform="translate(35.678 0.003)">
        <path id="Path_83857" data-name="Path 83857" d="M96.577,331.081a13.851,13.851,0,0,0-4.45-2.558,7.709,7.709,0,0,1,1.384-.508c8.168-2.042,15.321,10.213,16.34,21.447,6.608.191,11.088,2.1,11.234,4.085.128,1.741-3.071,3.757-7.149,5.106,8.583,4.929,10.324,10.266,9.191,13.277-.174.461-1.194,2.749-8.168,3.064,8.2,7.283,12.17,14.206,10.212,17.362-.411.662-1.8,2.315-7.149,2.043,10.867,8.4,15.719,17.275,13.277,21.447-.344.587-2.191,3.4-10.213,3.064,7.488,4.693,10.675,10.541,9.192,13.277-1.592,2.935-8.476,2.133-9.192,2.043,3.116,2.773,17.663,13.244,15.321,17.362-.542.951-2.451,2.668-11.234,1.021,15.663,12.765,20.428,20.255,18.383,24.51-1.229,2.557-3.612,4.6-11.234,4.085,8,6.893,12.647,13.171,11.234,15.321-1.343,2.041-8.242.475-16.314-3.052a21.3,21.3,0,0,0-6.154-12.267c4.148-.135,7.529-2.414,8.168-5.106.839-3.525-2.785-8.735-9.192-9.191,1.352-.375,6.016-1.732,7.149-5.107,1.53-4.555-3.607-12.093-14.3-16.34,1.214-.554,3.53-1.857,4.085-4.085.847-3.4-2.574-8.3-9.192-10.212,5.287-.464,9.876-3.245,11.234-7.149,1.98-5.68-2.68-14.283-12.255-16.34a5.752,5.752,0,0,0-1.021-11.234,14.481,14.481,0,0,0,6.128-15.321c-1.634-6.259-7.409-8.863-8.17-9.191a6.938,6.938,0,0,0,2.042-8.168c-1.619-3.182-6.431-4.569-10.212-2.042C104.4,350.811,103.55,337.136,96.577,331.081Z" transform="translate(-92.127 -327.791)" fill="#99a354" opacity="0.22"/>
        <g id="Group_163344" data-name="Group 163344" transform="translate(17.531 194.686)">
          <path id="Path_83858" data-name="Path 83858" d="M131.891,751.94q-.765-.781-1.519-1.569a12.16,12.16,0,0,0,2.486-.514,6.46,6.46,0,0,1-.205.718c-.046.127-.092.251-.146.369-.028.062-.055.12-.082.174-.018.037-.036.074-.055.109l-.046.083c-.018.034-.035.066-.054.1l-.046.078c-.056.092-.115.18-.179.265-.036.048-.072.092-.11.138A.36.36,0,0,1,131.891,751.94Z" transform="translate(-130.254 -749.77)" fill="#fff"/>
          <path id="Path_83859" data-name="Path 83859" d="M132.642,749.838a6.337,6.337,0,0,1-.18.614c-.046.126-.092.249-.138.357l-.017.03v.006c-.023.049-.046.1-.07.148s-.034.07-.053.1l-.012.021v0c-.01.02-.02.04-.035.064s-.032.06-.054.092-.029.049-.046.074c-.056.092-.115.18-.176.261-.035.046-.071.092-.108.138v0q-.7-.719-1.4-1.443a12.243,12.243,0,0,0,2.287-.472m.156-.17a12.212,12.212,0,0,1-2.685.554q.815.854,1.642,1.7c.03-.032.058-.065.085-.1s.075-.092.111-.142c.065-.087.125-.176.182-.269.016-.025.032-.051.046-.078s.039-.065.056-.1.024-.043.036-.066a.129.129,0,0,0,.01-.018c.02-.036.038-.074.057-.111.027-.056.054-.114.081-.172v-.006c.052-.12.1-.245.148-.374a6.8,6.8,0,0,0,.228-.821Z" transform="translate(-130.117 -749.668)"/>
        </g>
        <path id="Path_83860" data-name="Path 83860" d="M140.368,710.419c.8-3.823-.862-8.853-5.4-12.335.752.253,8.03,2.6,12.255-1.021,2.4-2.055,3.591-5.858,3.1-10.167,8.993,12.513,10.084,24.448,6.1,27.529C153.579,716.613,147.219,715.062,140.368,710.419Z" transform="translate(-115.197 -521.177)" fill="#99a354" opacity="0.22"/>
      </g>
    </g>
    <g id="Group_163347" data-name="Group 163347" transform="translate(64.685 323.107)">
      <path id="Path_83861" data-name="Path 83861" d="M192.589,632.041c-4.325,7.153-12.155,9.47-17,6.8-4.146-2.289-4.974-7.618-5.1-8.5-4.452,5.464-11.991,5.391-15.3,1.7-2.506-2.8-2.688-7.815,0-11.9-9.6,1.4-17.7-4.711-18.694-11.9-.689-4.984,2.077-10.26,6.8-13.6-7.44-4.548-10.163-10.821-8.5-13.6,1.324-2.207,5.692-2.647,10.2-1.7-3.952-5.428-3.758-12.584,0-16.995,4.661-5.473,14.243-6.057,20.394,0-6.533-12.337-3.616-24.854,3.4-28.891,5.185-2.984,11.622-.766,13.6,0-.263-5.341,3.761-8.864,6.8-8.5,2.4.29,4.77,3.088,5.1,6.8,1.324-9.9,9.824-16.195,17-15.3,8.038,1.008,15.258,11.168,11.9,22.094.274-.185,5.3-3.527,8.5-1.7,3.166,1.809,4.379,8.591,0,15.3,5.709-.857,8.012,1.224,8.5,1.7,3.719,3.649,2.677,13.166-5.1,22.094,7.173-7.061,17.9-5.815,22.093,0,3.176,4.4,2.708,11.575-1.7,16.995.263-.023,5.8-.415,8.5,3.4,2.616,3.7,1.565,9.964-3.4,13.6,6.684,6.425,5.826,15.612,1.7,18.694-3.466,2.589-10.359,1.707-15.3-3.4-.776,4.045-3.352,7.419-6.8,8.5-5,1.566-11.487-1.815-13.6-8.5a12.373,12.373,0,0,1-23.795,6.8c.341,3.134-.165,6.087-1.7,6.8C199.185,639.72,195.312,637.339,192.589,632.041Z" transform="translate(-134.335 -516.391)" fill="#4f4f20"/>
      <path id="Path_83862" data-name="Path 83862" d="M330.532,609.949c4.964-3.632,6.015-9.9,3.4-13.6-2.7-3.813-8.235-3.421-8.5-3.4,4.408-5.42,4.876-12.591,1.7-17-4.193-5.815-14.92-7.061-22.093,0,7.773-8.927,8.818-18.443,5.1-22.093-.485-.476-2.788-2.556-8.5-1.7,4.379-6.7,3.166-13.487,0-15.3-3.2-1.827-8.224,1.513-8.5,1.7,3.361-10.927-3.858-21.086-11.9-22.094-7.171-.9-15.67,5.4-16.995,15.3,11.9-10.2,16.995,1.7,16.995,10.2,3.729-2.438,5.75-2.162,6.8-1.7,6.507,2.873,1.9,24.574,1.7,25.492,3.208-3.666,7.717-4.849,10.2-3.4,3.03,1.771,4.306,8.214,0,13.6,1.24.011,7.8.185,11.9,5.1,4.637,5.558,4.316,15-1.7,22.093,3.244-2.521,9.816-2.5,11.9,0,4.552,5.463-5,11.672-10.2,10.2,3.4,8.5-3.4,16.995-15.3,11.9,2.109,6.683,8.593,10.064,13.6,8.5,3.446-1.079,6.022-4.452,6.8-8.5,4.938,5.106,11.829,5.988,15.3,3.4C336.357,625.561,337.215,616.374,330.532,609.949Z" transform="translate(-204.298 -516.392)" fill="#99a354" opacity="0.22"/>
      <path id="Path_83863" data-name="Path 83863" d="M244.932,683.555c-1.489-1.909-4.147-2.488-6.756-2.551,1.289-8.125-1.44-15.287-5.643-16.95-4.721-1.868-13.312,2.414-17.139,12.406,2.048-7.639-1.377-14.2-5.236-15.294-3.807-1.084-9.933,2.593-12.632,9.743-.916-9.553-8.661-15.506-14.506-14.738-6.281.823-12.62,9.7-9.645,19.825-9.936,1.279-16.538,9.685-16.344,17.883a18.067,18.067,0,0,0,10.389,1.5c-2.688,4.081-2.506,9.095,0,11.9a7.309,7.309,0,0,0,2.186,1.643,19.5,19.5,0,0,0,4.642.748c.068.067.138.131.206.2a11.445,11.445,0,0,0,8.26-4.288c.124.879.952,6.208,5.1,8.5,4.84,2.672,12.67.357,17-6.8,2.723,5.3,6.6,7.679,8.5,6.8,1.534-.711,2.041-3.664,1.7-6.8a12.432,12.432,0,0,0,15.3,8.5,12.183,12.183,0,0,0,2.827-1.226,47.9,47.9,0,0,0,5.134-5.838,12.288,12.288,0,0,0,.537-8.232,13.5,13.5,0,0,0,2.178,4.184C246.1,696.158,247.882,687.336,244.932,683.555Z" transform="translate(-146.556 -591.63)" fill="#3d3c17"/>
      <path id="Path_83864" data-name="Path 83864" d="M243.453,710.867c-.092.2-.185.4-.281.606-.138.3-.282.585-.427.872a41,41,0,0,1-2.907,4.9,42.249,42.249,0,0,1-5.163,6.126q.218,3.174.437,6.35.489,7.091.979,14.181.822,11.939,1.646,23.88-7.337-3.922-14.487-8.34.206-5.779.413-11.561.319-8.9.637-17.8c.013-.394.028-.789.042-1.183q.068-1.913.136-3.824l-.153-.095a11.721,11.721,0,0,1-1.053-.735,14.012,14.012,0,0,1-2.726-2.9,27.63,27.63,0,0,1-1.923-3.158c-1.332-2.5-2.538-5.283-4.213-8.02a29.717,29.717,0,0,0-2.44-3.446h0a24.317,24.317,0,0,0-1.817-1.973,25.416,25.416,0,0,0-6.166-4.4,1.812,1.812,0,0,1-.774-2.419l.152-.3a1.846,1.846,0,0,1,2.362-.869,24.079,24.079,0,0,1,8.127,6.107,60.545,60.545,0,0,1,3.923,4.753h0c.75,1,1.479,2,2.188,3,1.892,2.654,3.653,5.215,5.353,7.254a21.727,21.727,0,0,0,2.383,2.5,9.152,9.152,0,0,0,1.88,1.3q.348-.53.725-1.093c.626-.94,1.305-1.947,2.011-3.02,1.282-1.946,2.652-4.107,3.958-6.483.015-.026.03-.053.043-.08a51.067,51.067,0,0,0,5.16-13.116,72.123,72.123,0,0,0,1.566-10.053c0-.03.006-.058.008-.087a1.938,1.938,0,0,1,.29-.869,1.835,1.835,0,0,1,.312-.381,1.892,1.892,0,0,1,2.894.381,1.808,1.808,0,0,1,.25.642c.006.034.012.069.017.1A43.186,43.186,0,0,1,243.453,710.867Z" transform="translate(-171.322 -607.719)" fill="#51261e"/>
    </g>
    <g id="Group_163348" data-name="Group 163348" transform="translate(382.301 325.66)">
      <path id="Path_83865" data-name="Path 83865" d="M928.434,570.554a16.109,16.109,0,0,1,3.312-2.513,172.959,172.959,0,0,1-7.877,21.036q-.273.607-.554,1.213l-.161.348q-1.835,3.969-3.905,7.9A173.1,173.1,0,0,1,894.5,633.968l-.191.211q-2.218,2.449-4.562,4.852-4.182,4.286-8.773,8.405-3.435,3.075-7.107,6.048h0l-.285-.057c-.1-.019-.191-.042-.286-.065-.191-.046-.382-.092-.572-.149q-.4-.114-.789-.255a13.152,13.152,0,0,1-8.311-9.229,13.012,13.012,0,0,1-.366-2.474c-.005-.112-.01-.223-.012-.336s0-.222,0-.335,0-.2,0-.3v-.014c0-.1.007-.2.012-.3,0-.043,0-.088.007-.131s.006-.11.011-.166a1.151,1.151,0,0,1,.009-.126c0-.065.01-.13.017-.194l0-.034c.007-.071.015-.141.023-.213s.017-.135.026-.2.022-.155.033-.231.024-.155.037-.231.026-.155.041-.231.03-.155.046-.231c.033-.154.067-.308.106-.461s.078-.308.123-.461c-.03.092-.059.185-.089.277l-.049.141c0,.015-.01.03-.016.046s-.013.043-.022.064-.015.042-.023.063c-.034.1-.071.191-.107.285l-.041.1a.255.255,0,0,1-.012.031l-.037.092c-.016.041-.033.083-.051.124l-.058.138-.046.106c-.016.035-.035.081-.054.121-.032.073-.065.144-.1.217-.016.037-.034.075-.051.111q-.082.17-.167.338c-.112.219-.231.433-.35.643a.478.478,0,0,1-.036.062c-.051.089-.1.176-.156.263s-.114.185-.173.277c-.04.062-.081.124-.123.185s-.067.1-.1.15c-.068.1-.139.2-.208.294s-.142.192-.214.286l-.138.18c-.054.068-.109.138-.165.2s-.11.134-.167.2-.138.158-.207.235c-.157.174-.316.342-.479.508-.08.083-.163.163-.247.242a.1.1,0,0,1-.017.016c-.066.065-.133.127-.2.187s-.147.133-.221.2-.149.128-.225.191c-.046.041-.1.081-.145.119-.069.058-.138.114-.21.167l-.114.086c-.074.056-.149.112-.224.166s-.157.114-.236.168-.14.1-.21.142c-.211.141-.426.277-.646.4-.038.023-.077.046-.117.067-.075.043-.151.085-.227.126a.516.516,0,0,1-.055.029c-.072.039-.144.076-.216.113q-.32.163-.646.3l-.116.05c-.185.078-.369.15-.554.217l-.173.061-.179.06-.036.011c-.041.015-.082.027-.123.04-.127.04-.255.078-.383.112l-.138.036c-.1.026-.194.05-.291.072q-.085.021-.17.037c-.1.024-.208.046-.311.063-.081.015-.161.028-.241.041a.385.385,0,0,0-.058.009q-.162.026-.323.046l-.1.012q-.1.012-.208.021c-.046,0-.092.009-.138.011h0c-.051,0-.1.008-.15.01q-.176.012-.348.016c-.083,0-.166,0-.249,0h-.193c-.065,0-.128,0-.193-.005s-.119-.006-.178-.009-.108-.005-.161-.011a1.17,1.17,0,0,1-.127-.011c-.058,0-.114-.01-.172-.017l-.15-.018-.148-.019c-.069-.009-.138-.02-.207-.032s-.138-.024-.206-.037l-.092-.018-.2-.043q-.33-.075-.653-.176-.28-.086-.554-.194l-.12-.046q-.126-.051-.25-.107c-.046-.02-.1-.042-.142-.065l-.139-.066c-.059-.03-.119-.059-.178-.092s-.117-.061-.176-.092l-.084-.046c-.036-.019-.071-.038-.1-.059l-.1-.06c-.069-.041-.138-.083-.2-.125l-.053-.034c-.085-.054-.171-.11-.255-.168l-.185-.128c-.08-.057-.159-.116-.237-.176h0l-.123-.1-.12-.1-.089-.075c-.107-.089-.211-.18-.314-.274-.057-.051-.113-.1-.168-.156-.038-.036-.076-.072-.114-.11-.074-.07-.145-.144-.217-.218-.046-.046-.09-.1-.135-.143a11.144,11.144,0,0,1-.957-1.18c-.041-.058-.082-.116-.122-.175s-.064-.092-.092-.138-.076-.116-.114-.175l-.117-.188c-.039-.063-.076-.126-.114-.19s-.067-.115-.1-.173l-.12-.215q-.063-.116-.124-.235t-.12-.239c-.057-.114-.111-.231-.164-.347-.017-.038-.034-.074-.05-.112-.009-.019-.017-.038-.026-.059l-.023-.054h0c-.012-.03-.026-.061-.039-.092-.026-.06-.051-.122-.076-.185-.037-.092-.074-.185-.11-.277-.113-.3-.217-.6-.31-.917-.017-.054-.033-.109-.046-.163-.032-.109-.061-.22-.092-.329-.015-.055-.028-.11-.042-.165l-.046-.185q-.031-.13-.058-.259c-.021-.1-.042-.2-.061-.3-.078.081-.156.161-.236.239q-.239.238-.482.461c-.185.174-.376.342-.566.5l-.049.041c-.084.072-.168.141-.252.21l-.208.167-.046.036c-.076.059-.154.119-.231.177q-.15.114-.3.224-.135.1-.273.194l-.032.022q-.111.077-.222.15c-.058.04-.115.077-.173.115l-.1.065q-.259.167-.519.321c-.117.069-.234.138-.353.2-.077.043-.153.085-.231.126-.05.027-.1.054-.151.081-.112.059-.223.116-.334.172l-.265.128-.265.124-.179.079c-.117.052-.235.1-.353.15l-.138.057-.224.088c-.12.046-.239.09-.359.133s-.231.079-.343.116l-.195.063-.106.033c-.089.027-.177.054-.267.078-.114.033-.231.064-.342.092-.064.017-.127.033-.19.046-.088.022-.175.042-.263.061s-.2.046-.3.065l-.185.036q-.3.056-.593.1l-.111.016-.133.017c-.082.01-.164.019-.245.027l-.257.024-.231.017-.2.011-.157.007c-.069,0-.138,0-.206.006h-.431c-.076,0-.152,0-.227-.006a.879.879,0,0,1-.111,0,.556.556,0,0,1-.087,0,.215.215,0,0,1-.046,0c-.046,0-.088-.006-.131-.009-.072,0-.142-.01-.211-.017s-.133-.012-.2-.02c-.132-.015-.263-.032-.392-.053s-.231-.037-.343-.059c-.193-.036-.383-.078-.569-.127l-.179-.046-.149-.043-.092-.028c-.213-.066-.419-.141-.619-.221-.1-.041-.2-.084-.3-.129q-.292-.134-.565-.291c-.046-.025-.092-.053-.135-.08-.028-.016-.056-.033-.083-.051s-.076-.046-.114-.072c-.109-.071-.215-.144-.318-.221-.061-.046-.122-.092-.182-.141l-.033-.027c-.049-.04-.1-.079-.144-.122l-.041-.035c-.046-.042-.095-.084-.138-.128a.007.007,0,0,1,0,0c-.017-.016-.033-.032-.05-.046a.053.053,0,0,1-.011-.012c-.031-.028-.061-.058-.092-.089l-.008-.008c-.025-.025-.05-.05-.075-.076-.051-.052-.1-.106-.151-.16l-.138-.155c-.015-.017-.03-.033-.043-.05-.029-.033-.056-.066-.083-.1a.053.053,0,0,1-.01-.014h0c-.026-.031-.051-.063-.076-.095-.046-.058-.092-.117-.135-.176s-.1-.138-.149-.209v0c-.042-.06-.083-.12-.124-.185l-.005-.009-.023-.036-.07-.113c-.024-.038-.053-.083-.078-.126a.4.4,0,0,1-.023-.037l-.078-.135-.008-.014c-.024-.041-.046-.083-.069-.125a.014.014,0,0,1-.006-.01c-.02-.034-.039-.069-.057-.1-.041-.078-.081-.156-.12-.234-.016-.03-.03-.061-.046-.092-.026-.052-.051-.106-.075-.159-.013-.03-.027-.06-.041-.092a.334.334,0,0,1-.015-.032c-.014-.03-.027-.061-.04-.092a.044.044,0,0,1,0-.012q-.051-.118-.1-.239c-.04-.1-.077-.2-.114-.3-.015-.037-.028-.076-.042-.116s-.033-.092-.046-.138q-.04-.119-.078-.24c-.025-.079-.049-.159-.072-.239a.2.2,0,0,1-.01-.033h0v0q-.031-.1-.058-.208c-.008-.026-.015-.054-.021-.08-.018-.068-.035-.136-.051-.2-.034-.144-.067-.291-.1-.439q-.015-.069-.027-.138c-.015-.075-.029-.15-.041-.227s-.023-.138-.033-.209-.019-.121-.027-.182-.02-.144-.029-.217a.035.035,0,0,1,0-.01c0-.03-.007-.06-.01-.092a.114.114,0,0,1,0-.029c-.007-.049-.011-.1-.016-.148a.262.262,0,0,1,0-.031c0-.046-.009-.087-.012-.131-.017-.177-.029-.356-.038-.535q0-.051,0-.1c0-.067-.006-.134-.007-.2v-.089q0-.2,0-.4v-.109c0-.083,0-.167.006-.25a.171.171,0,0,1,0-.019c0-.078.006-.156.009-.234s.01-.182.017-.274c0-.075.01-.15.017-.226s.015-.179.025-.268.017-.164.027-.245q.033-.281.078-.566c.009-.057.018-.114.029-.173.013-.086.03-.173.046-.259a.014.014,0,0,0,0-.008c.018-.092.036-.185.055-.277.007-.036.015-.072.023-.107.038-.185.082-.366.128-.549.024-.092.049-.19.075-.284.019-.07.039-.142.061-.212s.041-.143.062-.214c.015-.05.031-.1.046-.152s.033-.107.051-.16.037-.115.058-.173c.012-.039.026-.077.04-.116s.025-.073.038-.109a.194.194,0,0,1,.009-.026c.029-.078.057-.157.086-.236,0-.008.006-.015.008-.023.022-.057.043-.112.066-.168.042-.109.086-.218.132-.327.033-.078.066-.157.1-.234.053-.125.11-.249.168-.373q.065-.139.133-.28c.046-.09.089-.18.134-.268l0-.01c.049-.092.1-.187.149-.281.015-.029.031-.059.046-.089.042-.078.085-.156.13-.231.059-.107.121-.213.185-.318s.126-.209.191-.312l.1-.164c.118-.185.242-.369.369-.554q.214-.311.45-.615c.053-.068.1-.138.158-.2.072-.09.143-.18.217-.269.054-.067.11-.133.167-.2l.155-.181c.078-.089.158-.18.239-.268l.132-.144c.081-.087.162-.174.245-.26.166-.173.336-.343.513-.512-.092-.066-.181-.134-.268-.2s-.163-.126-.242-.191c-.061-.049-.12-.1-.177-.145l-.024-.02q-.089-.073-.174-.149c-.057-.049-.113-.1-.167-.148l-.015-.013-.177-.164c-.109-.1-.216-.206-.321-.312l-.1-.1c-.066-.068-.131-.135-.194-.2s-.11-.12-.165-.182c-.117-.131-.231-.263-.34-.4l-.108-.134q-.092-.113-.177-.227c-.038-.046-.073-.1-.108-.143s-.051-.068-.075-.1c-.068-.092-.134-.187-.2-.281-.046-.067-.092-.136-.135-.2s-.106-.163-.156-.245c-.039-.061-.076-.123-.113-.185s-.067-.113-.1-.169l-.1-.179c-.068-.123-.133-.246-.2-.369-.029-.057-.058-.114-.085-.17l-.082-.172c-.027-.058-.051-.11-.075-.165s-.05-.109-.073-.165l-.092-.215s0-.008,0-.012q-.056-.138-.109-.28c-.035-.092-.069-.187-.1-.282-.018-.052-.036-.1-.053-.157-.024-.072-.046-.144-.07-.217-.012-.039-.025-.078-.035-.118s-.024-.078-.034-.117-.016-.054-.024-.082c-.023-.082-.046-.162-.065-.243-.016-.063-.03-.125-.046-.188-.007-.027-.013-.053-.018-.079q-.032-.143-.061-.287c-.013-.07-.027-.138-.04-.21s-.02-.116-.03-.174-.018-.11-.026-.166c-.011-.082-.023-.163-.033-.246,0-.024-.006-.049-.008-.072-.006-.041-.011-.081-.014-.122-.01-.092-.018-.187-.026-.281,0-.061-.009-.123-.012-.185,0-.043-.006-.088-.007-.131,0-.073-.005-.147-.008-.22s0-.167,0-.251v-.2c0-.065,0-.127.006-.191a.107.107,0,0,1,0-.022c0-.062.005-.126.009-.189s.009-.133.015-.2.012-.141.019-.21.015-.133.023-.2.016-.12.025-.179.019-.13.031-.195.022-.128.034-.192.025-.128.039-.192c.01-.046.02-.1.032-.144l.034-.143.037-.143c.013-.05.026-.1.041-.148s.028-.1.043-.145l.046-.151c.013-.042.027-.085.042-.127.02-.058.041-.115.061-.171q.046-.121.092-.239c.027-.067.056-.134.085-.2s.052-.117.079-.175.065-.138.1-.2.065-.125.1-.185l.076-.138c.034-.06.068-.12.1-.178s.071-.117.108-.174c.016-.025.032-.048.046-.072s.03-.049.046-.073c.03-.046.059-.087.09-.131,2.851-4.031,8.707-3.618,8.984-3.594-.07-.087-.138-.175-.209-.263-.018-.024-.036-.046-.054-.071-.138-.18-.277-.361-.408-.545l-.092-.127q-.2-.284-.39-.574c-.068-.106-.138-.212-.2-.319-.049-.077-.1-.155-.142-.231-.031-.052-.063-.1-.092-.157-.092-.159-.185-.319-.272-.479-.024-.043-.046-.086-.071-.13s-.053-.1-.078-.149-.06-.114-.092-.173c-.05-.1-.1-.2-.147-.294-.023-.046-.046-.092-.066-.138-.08-.166-.156-.334-.231-.5-.025-.057-.05-.115-.074-.172a.18.18,0,0,1-.014-.031c-.023-.051-.043-.1-.064-.152-.006-.013-.011-.026-.016-.039-.018-.043-.036-.086-.052-.129q-.057-.138-.109-.277c-.035-.092-.071-.185-.1-.28-.009-.024-.017-.046-.026-.072-.068-.191-.133-.382-.193-.574l-.046-.141c-.021-.066-.041-.133-.06-.2-.013-.046-.026-.088-.038-.132-.031-.107-.061-.215-.089-.323-.053-.194-.1-.388-.144-.582-.008-.034-.016-.067-.023-.1,0-.013-.007-.027-.009-.041-.017-.078-.034-.156-.05-.236,0-.025-.01-.051-.015-.076-.02-.1-.04-.2-.057-.3s-.034-.193-.049-.289l-.014-.092c-.011-.071-.021-.138-.03-.21a.219.219,0,0,1,0-.03c-.005-.037-.01-.075-.016-.113-.009-.068-.017-.136-.025-.2a.07.07,0,0,1,0-.012c-.005-.046-.01-.089-.015-.133s-.008-.074-.011-.11c-.007-.072-.013-.142-.02-.214s-.012-.142-.017-.214c0-.052-.008-.107-.011-.16-.006-.088-.01-.176-.015-.264s-.008-.2-.01-.3v-.1c0-.169,0-.337,0-.508v-.1c0-.107.005-.213.01-.318q0-.129.013-.259c.005-.086.011-.173.018-.258,0-.057.009-.113.015-.17s.011-.124.018-.185c.01-.1.022-.2.034-.3s.026-.2.041-.294c.01-.065.02-.128.031-.192a.181.181,0,0,1,.008-.046c.009-.05.017-.1.026-.15.023-.13.046-.258.075-.386q.02-.1.042-.191c.015-.064.027-.118.042-.177q.046-.191.1-.38l.015-.052c.012-.046.026-.1.041-.144s.032-.108.049-.161a.4.4,0,0,1,.014-.046c.017-.055.034-.109.052-.164s.04-.122.061-.182.036-.1.054-.155c.012-.033.024-.066.036-.1.022-.06.046-.12.067-.179s.046-.12.073-.181.059-.144.092-.216.063-.143.1-.215q.081-.179.171-.355c.021-.046.046-.087.067-.131s.035-.068.054-.1.035-.066.053-.1c.026-.051.055-.1.083-.15s.073-.128.112-.192.073-.123.111-.185c.125-.2.256-.4.395-.59.061-.084.123-.168.185-.25.05-.065.1-.129.153-.194s.092-.113.138-.167.092-.109.141-.164l.029-.033.012-.012c.048-.054.1-.109.148-.162s.115-.123.174-.185c.03-.031.059-.061.092-.092.049-.051.1-.1.151-.151s.13-.124.2-.185c.046-.042.092-.084.139-.125.074-.066.149-.132.225-.2h0q.1-.085.2-.167c.063-.051.125-.1.189-.15.083-.065.166-.128.252-.19.035-.026.072-.054.108-.078s.077-.057.117-.083l.073-.051c.086-.06.174-.12.263-.176l.089-.058c.087-.056.173-.11.26-.164l.039-.023c.081-.049.162-.1.245-.144l.138-.077c.142-.08.285-.156.43-.231.085-.043.172-.086.259-.128l.273-.129c.106-.046.211-.1.317-.138l.13-.055c.043-.017.086-.036.131-.053.065-.026.13-.052.2-.077.165-.064.331-.125.5-.182l.218-.074c.128-.042.258-.083.388-.12q.153-.046.31-.089c.068-.019.138-.038.206-.055.138-.037.277-.07.415-.1l.208-.046c.07-.015.144-.032.217-.046l.167-.033c.084-.017.168-.032.254-.046l.214-.035c.277-.046.551-.081.831-.109l.135-.014c.046,0,.1-.01.153-.013.017,0,.034,0,.05,0l.1-.008c.032,0,.065-.006.1-.007l.164-.011.217-.013h.039c.04,0,.078,0,.118-.005.073,0,.145-.006.216-.007l.2,0h.524c.069,0,.138,0,.208,0,.092,0,.187.006.281.01l.2.01c.131.008.263.017.395.029s.264.023.4.037l.231.026c.257.03.515.067.772.11h.022l.26.046c.1.017.2.037.3.058.12.024.24.05.359.078a.216.216,0,0,1,.046.01c.109.025.218.051.328.078l.15.039c.085.022.172.046.257.068s.166.046.249.07c.116.033.231.068.347.106.058.017.115.036.172.055s.086.028.13.043l.11.037.111.039c.2.067.392.138.586.217.085.033.172.067.257.1.132.054.265.11.4.169.069.03.138.06.207.092.092.041.181.083.27.126q.169.08.336.164l.012.006c.1.05.2.1.3.154s.185.1.277.149c.057.031.113.063.168.092.088.05.175.1.261.151q.1.06.2.123.433.26.857.554.1.065.191.133l.185.131c.078.057.157.114.234.173q.336.252.665.524l.178.148c.129.11.259.223.387.338.065.058.129.116.193.175l.191.179q.135.126.266.256c-.154-.176-.3-.354-.453-.53-.074-.087-.148-.176-.22-.264s-.146-.176-.217-.265q-.078-.1-.153-.191c-.106-.13-.208-.26-.309-.39-.046-.06-.092-.12-.141-.182s-.1-.134-.155-.2q-.415-.545-.8-1.09c-.074-.106-.148-.211-.22-.317l-.216-.317c-.072-.106-.149-.221-.221-.332s-.125-.19-.185-.285l-.03-.046-.046-.073c-.009-.016-.019-.03-.028-.046q-.155-.242-.3-.485c-.022-.034-.043-.069-.064-.1-.063-.1-.124-.206-.185-.308s-.122-.2-.179-.307-.117-.2-.174-.306c-.04-.068-.078-.138-.115-.206s-.074-.134-.11-.2-.071-.128-.1-.192-.076-.143-.114-.215c-.058-.11-.115-.22-.171-.33-.043-.083-.085-.165-.125-.248-.03-.06-.06-.121-.089-.182q-.268-.542-.5-1.081-.088-.2-.174-.4l-.084-.2c-.037-.089-.073-.177-.108-.266s-.062-.156-.092-.231c-.072-.182-.139-.363-.2-.544-.018-.05-.036-.1-.053-.149-.03-.084-.06-.168-.088-.252-.024-.068-.046-.135-.069-.2s-.051-.155-.076-.231c-.043-.13-.083-.258-.122-.385-.03-.1-.06-.2-.089-.3s-.049-.171-.073-.256q-.113-.4-.2-.789c-.016-.065-.031-.128-.046-.192-.03-.121-.056-.243-.081-.364-.018-.084-.036-.168-.051-.251-.033-.164-.063-.326-.092-.488,0-.02-.007-.041-.01-.062-.011-.064-.022-.129-.031-.192s-.018-.114-.026-.171c-.006-.041-.012-.083-.018-.125q-.056-.393-.092-.774c-.011-.106-.019-.21-.028-.315-.005-.061-.01-.123-.013-.185s-.007-.1-.009-.154c-.007-.1-.011-.2-.013-.3,0-.046,0-.088,0-.132,0-.067,0-.133,0-.2v-.216c0-.172,0-.342.009-.51,0-.083.006-.165.011-.247,0-.062.007-.124.011-.185h0c0-.054.008-.108.013-.162.009-.124.022-.245.035-.366.009-.08.019-.16.03-.24s.021-.155.033-.231c.02-.135.043-.269.069-.4,0-.025.009-.05.015-.075.01-.056.022-.113.035-.168.007-.036.015-.071.024-.106.014-.064.029-.126.046-.189s.033-.132.051-.2a.135.135,0,0,1,0-.018c.015-.054.03-.107.046-.159s.031-.1.046-.156.028-.092.046-.138a.569.569,0,0,1,.019-.058l.049-.141c.031-.089.065-.178.1-.266.016-.04.032-.078.046-.117s.032-.077.049-.116l.062-.138a.1.1,0,0,1,.008-.017.536.536,0,0,1,.027-.058,6.725,6.725,0,0,1,.348-.652c.025-.041.051-.083.078-.124s.046-.069.067-.1c.054-.083.11-.165.169-.245.031-.043.063-.085.1-.127s.06-.078.092-.116c.057-.072.117-.143.179-.212.02-.024.041-.046.063-.069.069-.078.142-.154.217-.227.513-.5,2.947-2.7,8.985-1.8-4.63-7.089-3.349-14.26,0-16.173,3.381-1.931,8.695,1.6,8.984,1.8-3.553-11.554,4.079-22.294,12.578-23.36,7.583-.95,16.567,5.71,17.969,16.172.348-3.923,2.848-6.881,5.391-7.187a4.482,4.482,0,0,1,1.931.218c2.75.9,5.481,4.206,5.258,8.768,2.086-.81,8.893-3.155,14.375,0C932.258,544.274,935.341,557.509,928.434,570.554Z" transform="translate(-822.614 -521.946)" fill="#4f4f20"/>
      <path id="Path_83866" data-name="Path 83866" d="M827.787,620.847c-5.249-3.841-6.36-10.463-3.594-14.376,2.85-4.032,8.707-3.618,8.985-3.594-4.661-5.73-5.156-13.313-1.8-17.97,4.433-6.147,15.776-7.465,23.36,0-8.219-9.439-9.324-19.5-5.391-23.36.513-.5,2.948-2.7,8.985-1.8-4.63-7.089-3.348-14.26,0-16.173,3.381-1.932,8.7,1.6,8.985,1.8-3.553-11.554,4.079-22.3,12.579-23.36,7.582-.951,16.567,5.71,17.969,16.172-12.579-10.781-17.969,1.8-17.969,10.782-3.943-2.578-6.08-2.286-7.188-1.8-6.882,3.037-2.01,25.984-1.8,26.954-3.392-3.876-8.159-5.127-10.782-3.594-3.2,1.873-4.553,8.684,0,14.375-1.311.011-8.242.194-12.579,5.391-4.9,5.877-4.563,15.857,1.8,23.361-3.43-2.665-10.379-2.64-12.579,0-4.813,5.776,5.284,12.341,10.782,10.782-3.594,8.984,3.594,17.969,16.173,12.578-2.23,7.067-9.086,10.641-14.376,8.985-3.643-1.141-6.368-4.707-7.188-8.985-5.22,5.4-12.506,6.331-16.172,3.594C821.629,637.355,820.721,627.641,827.787,620.847Z" transform="translate(-822.597 -521.924)" fill="#99a354" opacity="0.22"/>
      <path id="Path_83867" data-name="Path 83867" d="M961.974,669.842l-.161.348q-1.834,3.969-3.905,7.9a173.093,173.093,0,0,1-24.747,35.427l-.191.211q-2.218,2.449-4.562,4.852-4.182,4.286-8.773,8.405-3.435,3.075-7.107,6.048h0l-.285-.057c-.1-.019-.191-.042-.286-.065-.191-.046-.382-.092-.572-.149q-.4-.115-.789-.255a13.438,13.438,0,0,1-2.2-1.041,50.672,50.672,0,0,1-5.43-6.173,13.145,13.145,0,0,1-.676-2.015,12.956,12.956,0,0,1-.372-2.475c-.006-.112-.01-.223-.012-.336s0-.222,0-.335,0-.2,0-.3v-.014c0-.1.007-.2.012-.3,0-.043,0-.088.007-.131s.006-.11.011-.166a1.165,1.165,0,0,1,.009-.126c0-.065.01-.13.017-.194l0-.034c.007-.071.015-.141.023-.213s.017-.135.026-.2.022-.155.033-.231.023-.155.037-.231.026-.155.041-.231.03-.155.046-.231c.033-.154.067-.308.106-.461s.078-.308.123-.461c-.03.092-.059.185-.089.277l-.049.141c0,.015-.01.03-.016.046s-.013.043-.022.064-.015.042-.023.063c-.034.1-.071.191-.107.285l-.041.1a.265.265,0,0,1-.012.031L902,717.7c-.016.041-.033.083-.051.124l-.058.138-.046.106c-.016.035-.035.081-.054.121-.032.073-.065.144-.1.217a14.216,14.216,0,0,1-1.6,2.616c-.627-1.041-1.207-2.088-1.737-3.129a42.168,42.168,0,0,1-2.772-6.779c-1.615-5.3-1.629-9.907.327-12.414,1.574-2.018,4.384-2.63,7.144-2.7-1.359-8.565,1.5-16.118,5.926-17.905l.041-.017a8.5,8.5,0,0,1,5.524.017c4.6,1.379,9.8,5.8,12.6,13.1a16.124,16.124,0,0,1,1.7-13.1,7.323,7.323,0,0,1,3.839-3.071c2.413-.688,5.707.434,8.573,3.071a18.855,18.855,0,0,1,4.784,7.231A19.181,19.181,0,0,1,948.2,678.1a16.2,16.2,0,0,1,8.949-7.9,9.738,9.738,0,0,1,4.234-.449A4.682,4.682,0,0,1,961.974,669.842Z" transform="translate(-861.271 -601.498)" fill="#3d3c17"/>
      <path id="Path_83868" data-name="Path 83868" d="M962.517,730.724q-2.218,2.45-4.562,4.852a43.818,43.818,0,0,1-3.57-5.638q-.447-.846-.874-1.743a45.6,45.6,0,0,1-3.847-25.228,2,2,0,0,1,3.342-1.191,2.031,2.031,0,0,1,.637,1.322,76.054,76.054,0,0,0,1.665,10.721,57.333,57.333,0,0,0,7.067,16.669C962.422,730.568,962.469,730.647,962.517,730.724Z" transform="translate(-890.818 -618.49)" fill="#51261e"/>
    </g>
    <g id="Group_163349" data-name="Group 163349" transform="translate(50.292 417.336)">
      <path id="Path_83869" data-name="Path 83869" d="M276.461,758.645q-2.1-.877-4.211-1.738t-4.273-1.719h0c-.545-.216-1.091-.433-1.637-.646h0q-10.459-4.115-21.346-7.865-8.653-2.975-17.561-5.682-6.968-2.117-14.085-4.053-1.621-.442-3.253-.872h0l-.1-.025h0q-1.747-.461-3.507-.914h0q-8.66-2.221-17.521-4.15-3.022-.656-6.065-1.276l-.369-.075q-9.174-1.862-18.54-3.378h0q-2.893-.469-5.8-.9h0q-2.33-.346-4.668-.67h0q-6.105-.844-12.284-1.528Q135.3,722.5,129.307,722q-2.569-.217-5.15-.4h0q-.991-.071-1.984-.138h0q-.774-.053-1.551-.1-8.393-.539-16.9-.757l-.575-.015.33.4q5.316,6.41,11.1,12.516.5.534,1.015,1.065.815.854,1.642,1.7h0q1.5,1.536,3.024,3.049a275.393,275.393,0,0,0,37.717,31.26q5.664,3.9,11.5,7.505,7.14,4.411,14.487,8.34c28.146,15.051,58.212,24.546,87.059,26.321q1.657.1,3.3.193h0q1.233.07,2.457.132a478.718,478.718,0,0,0,64.868-.823q2.186-.185,4.344-.391,12.108-1.154,23.368-2.965a524.9,524.9,0,0,0-92.9-50.238Z" transform="translate(-103.145 -720.581)" fill="#7f8440"/>
      <path id="Path_83870" data-name="Path 83870" d="M238.649,769.445h5.111c3.651-5.111,5.111-9.492,3.651-10.222s-3.651,1.46-5.841,5.841c-1.46-3.651-3.651-5.111-5.111-4.381S235.729,764.334,238.649,769.445Z" transform="translate(-174.545 -741.316)" fill="#5f602e"/>
    </g>
    <g id="Group_163351" data-name="Group 163351" transform="translate(105.118 433.707)">
      <path id="Path_83871" data-name="Path 83871" d="M557.5,773.5q-3.435,3.075-7.107,6.048h0c-27.884,22.562-66.067,40.287-117.058,48.436q-11.264,1.8-23.368,2.965-2.158.206-4.344.391a478.723,478.723,0,0,1-64.868.823q-1.226-.063-2.457-.132h0q-1.645-.09-3.3-.193c-28.846-1.775-58.912-11.271-87.059-26.321q-7.337-3.923-14.487-8.34-5.827-3.6-11.5-7.505,5.867-2.056,11.906-4.056,6.126-2.025,12.429-3.978a600.61,600.61,0,0,1,62.678-15.861A510.242,510.242,0,0,1,421.8,756.265q15.9.466,31.1,1.6,2.794.2,5.564.432c14.291,1.166,28.1,2.731,41.4,4.612h0q8.209,1.159,16.157,2.474,1.784.295,3.557.6h0q8.659,1.474,16.992,3.105,1.8.352,3.576.708h.006Q549.02,771.573,557.5,773.5Z" transform="translate(-221.952 -756.057)" fill="#99a354"/>
      <g id="Group_163350" data-name="Group 163350" transform="translate(68.512 13.995)">
        <path id="Path_83872" data-name="Path 83872" d="M373.53,864.545h5.451c3.893-5.45,5.451-10.123,3.893-10.9s-3.893,1.558-6.23,6.23c-1.557-3.893-3.893-5.451-5.451-4.672S370.415,859.095,373.53,864.545Z" transform="translate(-370.415 -822.525)" fill="#7f8440"/>
        <path id="Path_83873" data-name="Path 83873" d="M538.091,859.261c1.944-11.029-8.179-11.807-8.179-.127-2.336-4.672-8.565-3.893-2.336,3.894h13.238C545.486,857.577,542.371,850.569,538.091,859.261Z" transform="translate(-453.602 -821.007)" fill="#7f8440"/>
        <path id="Path_83874" data-name="Path 83874" d="M702.565,864.545h5.451c3.894-5.45,5.451-10.123,3.894-10.9s-3.894,1.558-6.23,6.23c-1.557-3.893-3.893-5.451-5.45-4.672S699.45,859.095,702.565,864.545Z" transform="translate(-547.609 -822.525)" fill="#7f8440"/>
        <path id="Path_83875" data-name="Path 83875" d="M456.21,801.937h5.451c3.893-5.451,5.451-10.123,3.893-10.9s-3.893,1.557-6.23,6.23c-1.557-3.893-3.893-5.451-5.451-4.672S453.1,796.486,456.21,801.937Z" transform="translate(-414.941 -788.809)" fill="#7f8440"/>
        <path id="Path_83876" data-name="Path 83876" d="M617.4,794.965c1.944-11.029-8.179-11.807-8.179-.126-2.336-4.672-8.565-3.894-2.336,3.893h13.237C624.791,793.281,621.677,786.273,617.4,794.965Z" transform="translate(-496.31 -786.383)" fill="#7f8440"/>
        <path id="Path_83877" data-name="Path 83877" d="M783.556,800.249H789c3.893-5.45,5.451-10.122,3.893-10.9s-3.893,1.558-6.23,6.23c-1.557-3.893-3.893-5.45-5.45-4.672S780.441,794.8,783.556,800.249Z" transform="translate(-591.223 -787.9)" fill="#7f8440"/>
      </g>
    </g>
  </g>
</svg>
