<svg xmlns="http://www.w3.org/2000/svg" xmlns:xlink="http://www.w3.org/1999/xlink" width="137" height="91" viewBox="0 0 137 91">
  <defs>
    <clipPath id="clip-path">
      <rect id="Rectangle_147768" data-name="Rectangle 147768" width="137" height="91" transform="translate(0 0)" fill="#fff"/>
    </clipPath>
  </defs>
  <g id="Rectangle" transform="translate(-26.046 -78.64)">
    <g id="Group_163353" data-name="Group 163353" transform="translate(26.046 78.64)">
      <g id="Group_163352" data-name="Group 163352" transform="translate(0 0)">
        <g id="Mask_Group_8" data-name="Mask Group 8" clip-path="url(#clip-path)">
          <g id="Untitled-1" transform="translate(22.969 0.121)">
            <g id="Group_163553" data-name="Group 163553" transform="translate(17.442 17.726)">
              <path id="Path_84002" data-name="Path 84002" d="M122.289,124.052v-13.9l-13.9,13.9Z" transform="translate(-108.391 -110.155)" fill="#cfe5e2"/>
              <path id="Path_84003" data-name="Path 84003" d="M242.432,187.7a22.123,22.123,0,1,0,22.123,22.123A22.152,22.152,0,0,0,242.432,187.7Zm0,36.729a14.606,14.606,0,1,1,14.606-14.606A14.585,14.585,0,0,1,242.432,224.432Z" transform="translate(-202.3 -175.224)" fill="#f4cc69"/>
            </g>
            <g id="Group_163554" data-name="Group 163554" transform="translate(9.217 9.359)">
              <path id="Path_84004" data-name="Path 84004" d="M57.277,130.2h8.367V80.282l13.9-13.9H110.03V58.159H57.419V130.2h-.142Z" transform="translate(-57.277 -58.159)" fill="#f4cc69"/>
              <path id="Path_84005" data-name="Path 84005" d="M454.655,414.794l-6.948-6.948-.284.284-5.389-5.389-5.814,5.815,5.389,5.389-.284.284,6.948,6.948a2.74,2.74,0,0,0,3.97,0l2.552-2.553a3,3,0,0,0-.142-3.83Z" transform="translate(-375.241 -347.291)" fill="#d15d4c"/>
            </g>
            <g id="Group_163555" data-name="Group 163555">
              <path id="Path_84006" data-name="Path 84006" d="M1.843,2.127H52.469V9.359H54.6V.993A.97.97,0,0,0,53.6,0H.993A.97.97,0,0,0,0,.993v72.18a.97.97,0,0,0,.993.993H9.36V72.04H2.127V2.127Z" fill="#1a171b"/>
              <path id="Path_84007" data-name="Path 84007" d="M222.184,192.335h4.4a.993.993,0,1,0,0-1.986h-4.4a.993.993,0,0,0,0,1.986Z" transform="translate(-185.598 -159.718)" fill="#1a171b"/>
              <path id="Path_84008" data-name="Path 84008" d="M222.184,149.147H239.06a.993.993,0,1,0,0-1.986H222.184a.993.993,0,1,0,0,1.986Z" transform="translate(-185.598 -123.48)" fill="#1a171b"/>
              <path id="Path_84009" data-name="Path 84009" d="M137.582,235.513h2.836a.993.993,0,1,0,0-1.986h-2.836a.993.993,0,1,0,0,1.986Z" transform="translate(-114.609 -195.948)" fill="#1a171b"/>
              <path id="Path_84010" data-name="Path 84010" d="M191.532,235.513a.993.993,0,1,0,0-1.986H188.7a.993.993,0,1,0,0,1.986Z" transform="translate(-157.498 -195.948)" fill="#1a171b"/>
              <path id="Path_84011" data-name="Path 84011" d="M137.582,278.691h8.367a.993.993,0,1,0,0-1.986h-8.367a.993.993,0,1,0,0,1.986Z" transform="translate(-114.609 -232.178)" fill="#1a171b"/>
              <path id="Path_84012" data-name="Path 84012" d="M137.582,321h5.531a.993.993,0,1,0,0-1.986h-5.531a.993.993,0,1,0,0,1.986Z" transform="translate(-114.609 -267.676)" fill="#1a171b"/>
              <path id="Path_84013" data-name="Path 84013" d="M137.582,364.175h8.367a.993.993,0,0,0,0-1.986h-8.367a.993.993,0,1,0,0,1.986Z" transform="translate(-114.609 -303.906)" fill="#1a171b"/>
              <path id="Path_84014" data-name="Path 84014" d="M150.519,406.37a.97.97,0,0,0-.993-.993H138.464a.993.993,0,1,0,0,1.986h11.061A1.066,1.066,0,0,0,150.519,406.37Z" transform="translate(-115.349 -340.144)" fill="#1a171b"/>
              <path id="Path_84015" data-name="Path 84015" d="M140.418,447.673h-2.836a.993.993,0,1,0,0,1.986h2.836a.993.993,0,1,0,0-1.986Z" transform="translate(-114.609 -375.634)" fill="#1a171b"/>
              <path id="Path_84016" data-name="Path 84016" d="M188.585,449.433a.97.97,0,0,0,.993.993h8.367a.993.993,0,1,0,0-1.986h-8.367C189.01,448.3,188.585,448.865,188.585,449.433Z" transform="translate(-158.238 -376.259)" fill="#1a171b"/>
              <path id="Path_84017" data-name="Path 84017" d="M140.418,490.861h-2.836a.993.993,0,1,0,0,1.986h2.836a.97.97,0,0,0,.993-.993A1.066,1.066,0,0,0,140.418,490.861Z" transform="translate(-114.609 -411.873)" fill="#1a171b"/>
              <path id="Path_84018" data-name="Path 84018" d="M189.578,493.719h20.846a.993.993,0,0,0,0-1.987H189.578a.993.993,0,0,0,0,1.987Z" transform="translate(-158.238 -412.604)" fill="#1a171b"/>
              <path id="Path_84019" data-name="Path 84019" d="M468.93,428.392a.943.943,0,0,0-1.417,0l-6.524,6.524a.943.943,0,0,0,0,1.417l6.948,6.948a3.765,3.765,0,0,0,5.389,0l2.553-2.553a3.946,3.946,0,0,0,0-5.389Zm5.389,10.776-2.553,2.553a1.629,1.629,0,0,1-2.411,0l-6.24-6.24,4.963-4.963,6.24,6.24a1.631,1.631,0,0,1,0,2.411Z" transform="translate(-386.54 -359.188)" fill="#1a171b"/>
              <path id="Path_84020" data-name="Path 84020" d="M292.05,243.844a15.6,15.6,0,1,0-15.6,15.6A15.553,15.553,0,0,0,292.05,243.844ZM271.2,244.979a.946.946,0,0,0-1.417.142,6.054,6.054,0,0,0-1.417,4.112v5.247a13.648,13.648,0,0,1-5.247-10.636,13.472,13.472,0,1,1,21.7,10.636v-5.247a7.206,7.206,0,0,0-1.417-4.112,1.007,1.007,0,0,0-1.559,1.276,4.086,4.086,0,0,1,.993,2.836v6.524a13.266,13.266,0,0,1-12.48,0v-6.524a4.334,4.334,0,0,1,.993-2.836,1.089,1.089,0,0,0-.142-1.417Z" transform="translate(-218.876 -191.517)" fill="#1a171b"/>
              <path id="Path_84021" data-name="Path 84021" d="M333.5,285.475a4.821,4.821,0,1,0-4.821-4.821A4.7,4.7,0,0,0,333.5,285.475Zm0-7.658a2.836,2.836,0,1,1-2.836,2.836A2.846,2.846,0,0,1,333.5,277.817Z" transform="translate(-275.782 -231.446)" fill="#1a171b"/>
              <path id="Path_84022" data-name="Path 84022" d="M143.486,165.52a.97.97,0,0,0,.993-.993v-1.843A23.345,23.345,0,0,0,166.6,140.561h1.843a.993.993,0,1,0,0-1.986H166.6a22.929,22.929,0,0,0-9.643-17.726V104.966a.97.97,0,0,0-.993-.993H117.11a1.084,1.084,0,0,0-.709.284l-13.9,13.9a1.084,1.084,0,0,0-.284.709v58.142a.97.97,0,0,0,.993.993h52.611a.97.97,0,0,0,.993-.993V165.095a.993.993,0,1,0-1.986,0v10.92H104.205V119.857h12.763a.97.97,0,0,0,.993-.993V106.1H154.69v13.472a23.673,23.673,0,0,0-10.352-2.978v-1.843a.993.993,0,1,0-1.986,0V116.6a23.345,23.345,0,0,0-22.123,22.123h-1.843a.993.993,0,0,0,0,1.986h1.843a23.345,23.345,0,0,0,22.123,22.123v1.843c0,.426.426.851,1.135.851Zm-27.37-47.79H105.765l10.352-10.352Zm6.24,22.832h1.7a.993.993,0,0,0,0-1.986h-1.7a21.057,21.057,0,0,1,19.995-19.995v1.7a.993.993,0,1,0,1.986,0v-1.7a21.057,21.057,0,0,1,19.995,19.995h-1.7a.993.993,0,1,0,0,1.986h1.7a21.057,21.057,0,0,1-19.995,19.995V159a.993.993,0,0,0-1.986,0v1.7A21.187,21.187,0,0,1,122.357,140.563Z" transform="translate(-85.77 -87.242)" fill="#1a171b"/>
              <path id="Path_84023" data-name="Path 84023" d="M550.894,342.809a.97.97,0,0,0-.993.993v5.815a.993.993,0,1,0,1.986,0V343.8C552.029,343.376,551.462,342.809,550.894,342.809Z" transform="translate(-461.412 -287.645)" fill="#1a171b"/>
              <path id="Path_84024" data-name="Path 84024" d="M550.894,180.658a.97.97,0,0,0-.993.993v17.726a.993.993,0,1,0,1.986,0V181.651C552.029,181.226,551.462,180.658,550.894,180.658Z" transform="translate(-461.412 -151.587)" fill="#1a171b"/>
              <path id="Path_84025" data-name="Path 84025" d="M435.537,0H413.414a.97.97,0,0,0-.993.993.97.97,0,0,0,.993.993h21.13V21.7a.993.993,0,0,0,1.987,0V.851C436.672.568,436.1,0,435.537,0Z" transform="translate(-346.055)" fill="#1a171b"/>
            </g>
          </g>
        </g>
      </g>
    </g>
  </g>
</svg>
